<?xml version="1.0" encoding="UTF-8"?>
<!DOCTYPE svg PUBLIC "-//W3C//DTD SVG 1.1//EN" "http://www.w3.org/Graphics/SVG/1.1/DTD/svg11.dtd">
<!-- Creator: CorelDRAW 2020 (64 Bit) -->
<svg xmlns="http://www.w3.org/2000/svg" xml:space="preserve" width="397.853mm" height="198.702mm" version="1.1" style="shape-rendering:geometricPrecision; text-rendering:geometricPrecision; image-rendering:optimizeQuality; fill-rule:evenodd; clip-rule:evenodd"
viewBox="0 0 65266 32596"
 xmlns:xlink="http://www.w3.org/1999/xlink"
 xmlns:xodm="http://www.corel.com/coreldraw/odm/2003">
 <defs>
  <style type="text/css">
   <![CDATA[
    .str1 {stroke:#A8A5A6;stroke-width:27;stroke-miterlimit:22.9256}
    .str0 {stroke:#A8A5A6;stroke-width:13;stroke-miterlimit:22.9256}
    .fil5 {fill:none}
    .fil1 {fill:none;fill-rule:nonzero}
    .fil2 {fill:#00853B;fill-rule:nonzero}
    .fil6 {fill:#00853B;fill-rule:nonzero}
    .fil4 {fill:#204E37;fill-rule:nonzero}
    .fil0 {fill:#A8A5A6;fill-rule:nonzero}
    .fil3 {fill:#FEFEFE;fill-rule:nonzero}
    .fil7 {fill:black;fill-opacity:0.000000}
   ]]>
  </style>
    <clipPath id="id0">
     <path d="M54055 13l9123 0 0 5448 -9123 0 0 -5448z"/>
    </clipPath>
    <clipPath id="id1">
     <path d="M54055 5461l9123 0 0 5448 -9123 0 0 -5448z"/>
    </clipPath>
    <clipPath id="id2">
     <path d="M53895 13121l11358 0 0 19463 -11358 0 0 -19463z"/>
    </clipPath>
    <clipPath id="id3">
     <path d="M2063 27265l-2049 0 0 -2324 2049 0 0 2324z"/>
    </clipPath>
    <clipPath id="id4">
     <path d="M3000 32451l6648 0 0 -3899 -6648 0 0 3899z"/>
    </clipPath>
    <clipPath id="id5">
     <path d="M3450 15482l5498 0 0 -11796 -5498 0 0 11796z"/>
    </clipPath>
 </defs>
 <g id="Camada_x0020_1">
  <metadata id="CorelCorpID_0Corel-Layer"/>
  <g id="_1960978653104">
   <g>
    <path class="fil0" d="M63179 25l-9123 0 0 -25 9123 0 13 13 -13 13zm0 -25l13 0 0 13 -13 -13zm-13 5461l0 -5448 26 0 0 5448 -13 13 -13 -13zm26 0l0 13 -13 0 13 -13zm-9136 -13l9123 0 0 25 -9123 0 -13 -13 13 -13zm0 25l-13 0 0 -13 13 13zm13 -5461l0 5448 -26 0 0 -5448 13 -13 13 13zm-26 0l0 -13 13 0 -13 13z"/>
   </g>
   <g>
   </g>
   <g style="clip-path:url(#id0)">
   </g>
   <g>
    <g>
     <polygon class="fil0" points="54399,22 54065,356 54046,338 54380,3 "/>
    </g>
    <g>
     <polygon class="fil0" points="54738,22 54065,695 54046,677 54719,3 "/>
    </g>
    <g>
     <polygon class="fil0" points="55077,22 54065,1035 54046,1016 55058,3 "/>
    </g>
    <g>
     <polygon class="fil0" points="55416,22 54065,1374 54046,1355 55398,3 "/>
    </g>
    <g>
     <polygon class="fil0" points="55755,22 54065,1713 54046,1694 55737,3 "/>
    </g>
    <g>
     <polygon class="fil0" points="56095,22 54065,2052 54046,2033 56076,3 "/>
    </g>
    <g>
     <polygon class="fil0" points="56434,22 54065,2391 54046,2372 56415,3 "/>
    </g>
    <g>
     <polygon class="fil0" points="56773,22 54065,2730 54046,2711 56754,3 "/>
    </g>
    <g>
     <polygon class="fil0" points="57112,22 54065,3069 54046,3050 57093,3 "/>
    </g>
    <g>
     <polygon class="fil0" points="57451,22 54065,3408 54046,3389 57432,3 "/>
    </g>
    <g>
     <polygon class="fil0" points="57790,22 54065,3747 54046,3728 57771,3 "/>
    </g>
    <g>
     <polygon class="fil0" points="58129,22 54065,4086 54046,4068 58110,3 "/>
    </g>
    <g>
     <polygon class="fil0" points="58468,22 54065,4426 54046,4407 58449,3 "/>
    </g>
    <g>
     <polygon class="fil0" points="58807,22 54065,4765 54046,4746 58788,3 "/>
    </g>
    <g>
     <polygon class="fil0" points="59146,22 54065,5104 54046,5085 59128,3 "/>
    </g>
    <g>
     <polygon class="fil0" points="59486,22 54065,5443 54046,5424 59467,3 "/>
    </g>
    <g>
     <polygon class="fil0" points="59825,22 54377,5470 54358,5451 59806,3 "/>
    </g>
    <g>
     <polygon class="fil0" points="60164,22 54716,5470 54697,5451 60145,3 "/>
    </g>
    <g>
     <polygon class="fil0" points="60503,22 55055,5470 55036,5451 60484,3 "/>
    </g>
    <g>
     <polygon class="fil0" points="60842,22 55394,5470 55375,5451 60823,3 "/>
    </g>
    <g>
     <polygon class="fil0" points="61181,22 55733,5470 55714,5451 61162,3 "/>
    </g>
    <g>
     <polygon class="fil0" points="61520,22 56072,5470 56053,5451 61501,3 "/>
    </g>
    <g>
     <polygon class="fil0" points="61859,22 56411,5470 56392,5451 61840,3 "/>
    </g>
    <g>
     <polygon class="fil0" points="62198,22 56750,5470 56731,5451 62179,3 "/>
    </g>
    <g>
     <polygon class="fil0" points="62537,22 57089,5470 57070,5451 62519,3 "/>
    </g>
    <g>
     <polygon class="fil0" points="62876,22 57428,5470 57410,5451 62858,3 "/>
    </g>
    <g>
     <polygon class="fil0" points="63188,50 57768,5470 57749,5451 63169,31 "/>
    </g>
    <g>
     <polygon class="fil0" points="63188,389 58107,5470 58088,5451 63169,370 "/>
    </g>
    <g>
     <polygon class="fil0" points="63188,728 58446,5470 58427,5451 63169,709 "/>
    </g>
    <g>
     <polygon class="fil0" points="63188,1067 58785,5470 58766,5451 63169,1048 "/>
    </g>
    <g>
     <polygon class="fil0" points="63188,1406 59124,5470 59105,5451 63169,1387 "/>
    </g>
    <g>
     <polygon class="fil0" points="63188,1745 59463,5470 59444,5451 63169,1726 "/>
    </g>
    <g>
     <polygon class="fil0" points="63188,2084 59802,5470 59783,5451 63169,2065 "/>
    </g>
    <g>
     <polygon class="fil0" points="63188,2423 60141,5470 60122,5451 63169,2404 "/>
    </g>
    <g>
     <polygon class="fil0" points="63188,2762 60480,5470 60461,5451 63169,2744 "/>
    </g>
    <g>
     <polygon class="fil0" points="63188,3102 60819,5470 60800,5451 63169,3083 "/>
    </g>
    <g>
     <polygon class="fil0" points="63188,3441 61158,5470 61140,5451 63169,3422 "/>
    </g>
    <g>
     <polygon class="fil0" points="63188,3780 61498,5470 61479,5451 63169,3761 "/>
    </g>
    <g>
     <polygon class="fil0" points="63188,4119 61837,5470 61818,5451 63169,4100 "/>
    </g>
    <g>
     <polygon class="fil0" points="63188,4458 62176,5470 62157,5451 63169,4439 "/>
    </g>
    <g>
     <polygon class="fil0" points="63188,4797 62515,5470 62496,5451 63169,4778 "/>
    </g>
    <g>
     <polygon class="fil0" points="63188,5136 62854,5470 62835,5451 63169,5117 "/>
    </g>
   </g>
  </g>
  <g>
   <g>
    <path class="fil0" d="M63179 5474l-9123 0 0 -25 9123 0 13 13 -13 13zm0 -25l13 0 0 13 -13 -13zm-13 5461l0 -5448 26 0 0 5448 -13 13 -13 -13zm26 0l0 13 -13 0 13 -13zm-9136 -13l9123 0 0 25 -9123 0 -13 -13 13 -13zm0 25l-13 0 0 -13 13 13zm13 -5461l0 5448 -26 0 0 -5448 13 -13 13 13zm-26 0l0 -13 13 0 -13 13z"/>
   </g>
   <g>
   </g>
   <g style="clip-path:url(#id1)">
   </g>
   <g>
    <g>
     <polygon class="fil0" points="54399,5470 54065,5804 54046,5786 54380,5451 "/>
    </g>
    <g>
     <polygon class="fil0" points="54738,5470 54065,6144 54046,6125 54719,5451 "/>
    </g>
    <g>
     <polygon class="fil0" points="55077,5470 54065,6483 54046,6464 55058,5451 "/>
    </g>
    <g>
     <polygon class="fil0" points="55416,5470 54065,6822 54046,6803 55398,5451 "/>
    </g>
    <g>
     <polygon class="fil0" points="55755,5470 54065,7161 54046,7142 55737,5451 "/>
    </g>
    <g>
     <polygon class="fil0" points="56095,5470 54065,7500 54046,7481 56076,5451 "/>
    </g>
    <g>
     <polygon class="fil0" points="56434,5470 54065,7839 54046,7820 56415,5451 "/>
    </g>
    <g>
     <polygon class="fil0" points="56773,5470 54065,8178 54046,8159 56754,5451 "/>
    </g>
    <g>
     <polygon class="fil0" points="57112,5470 54065,8517 54046,8498 57093,5451 "/>
    </g>
    <g>
     <polygon class="fil0" points="57451,5470 54065,8856 54046,8837 57432,5451 "/>
    </g>
    <g>
     <polygon class="fil0" points="57790,5470 54065,9195 54046,9177 57771,5451 "/>
    </g>
    <g>
     <polygon class="fil0" points="58129,5470 54065,9535 54046,9516 58110,5451 "/>
    </g>
    <g>
     <polygon class="fil0" points="58468,5470 54065,9874 54046,9855 58449,5451 "/>
    </g>
    <g>
     <polygon class="fil0" points="58807,5470 54065,10213 54046,10194 58788,5451 "/>
    </g>
    <g>
     <polygon class="fil0" points="59146,5470 54065,10552 54046,10533 59128,5451 "/>
    </g>
    <g>
     <polygon class="fil0" points="59486,5470 54065,10891 54046,10872 59467,5451 "/>
    </g>
    <g>
     <polygon class="fil0" points="59825,5470 54377,10918 54358,10899 59806,5451 "/>
    </g>
    <g>
     <polygon class="fil0" points="60164,5470 54716,10918 54697,10899 60145,5451 "/>
    </g>
    <g>
     <polygon class="fil0" points="60503,5470 55055,10918 55036,10899 60484,5451 "/>
    </g>
    <g>
     <polygon class="fil0" points="60842,5470 55394,10918 55375,10899 60823,5451 "/>
    </g>
    <g>
     <polygon class="fil0" points="61181,5470 55733,10918 55714,10899 61162,5451 "/>
    </g>
    <g>
     <polygon class="fil0" points="61520,5470 56072,10918 56053,10899 61501,5451 "/>
    </g>
    <g>
     <polygon class="fil0" points="61859,5470 56411,10918 56392,10899 61840,5451 "/>
    </g>
    <g>
     <polygon class="fil0" points="62198,5470 56750,10918 56731,10899 62179,5451 "/>
    </g>
    <g>
     <polygon class="fil0" points="62537,5470 57089,10918 57070,10899 62519,5451 "/>
    </g>
    <g>
     <polygon class="fil0" points="62876,5470 57428,10918 57410,10899 62858,5451 "/>
    </g>
    <g>
     <polygon class="fil0" points="63188,5498 57768,10918 57749,10899 63169,5479 "/>
    </g>
    <g>
     <polygon class="fil0" points="63188,5837 58107,10918 58088,10899 63169,5818 "/>
    </g>
    <g>
     <polygon class="fil0" points="63188,6176 58446,10918 58427,10899 63169,6157 "/>
    </g>
    <g>
     <polygon class="fil0" points="63188,6515 58785,10918 58766,10899 63169,6496 "/>
    </g>
    <g>
     <polygon class="fil0" points="63188,6854 59124,10918 59105,10899 63169,6835 "/>
    </g>
    <g>
     <polygon class="fil0" points="63188,7193 59463,10918 59444,10899 63169,7174 "/>
    </g>
    <g>
     <polygon class="fil0" points="63188,7532 59802,10918 59783,10899 63169,7513 "/>
    </g>
    <g>
     <polygon class="fil0" points="63188,7871 60141,10918 60122,10899 63169,7853 "/>
    </g>
    <g>
     <polygon class="fil0" points="63188,8210 60480,10918 60461,10899 63169,8192 "/>
    </g>
    <g>
     <polygon class="fil0" points="63188,8550 60819,10918 60800,10899 63169,8531 "/>
    </g>
    <g>
     <polygon class="fil0" points="63188,8889 61158,10918 61140,10899 63169,8870 "/>
    </g>
    <g>
     <polygon class="fil0" points="63188,9228 61498,10918 61479,10899 63169,9209 "/>
    </g>
    <g>
     <polygon class="fil0" points="63188,9567 61837,10918 61818,10899 63169,9548 "/>
    </g>
    <g>
     <polygon class="fil0" points="63188,9906 62176,10918 62157,10899 63169,9887 "/>
    </g>
    <g>
     <polygon class="fil0" points="63188,10245 62515,10918 62496,10899 63169,10226 "/>
    </g>
    <g>
     <polygon class="fil0" points="63188,10584 62854,10918 62835,10899 63169,10565 "/>
    </g>
   </g>
  </g>
  <g>
   <g>
    <polygon class="fil1 str0" points="53895,13121 65253,13121 65253,32583 53895,32583 "/>
   </g>
   <g>
   </g>
   <g style="clip-path:url(#id2)">
   </g>
   <g>
    <path class="fil0" d="M65262 19744l-11358 11358 -19 -19 11358 -11358 19 19zm0 339l-11358 11358 -19 -19 11358 -11358 19 19zm0 339l-11358 11358 -19 -19 11358 -11358 19 19zm0 339l-11358 11358 -19 -19 11358 -11358 19 19zm0 339l-11358 11358 -19 -19 11358 -11358 19 19zm0 339l-11154 11153 -19 -19 11154 -11153 19 19zm0 339l-10814 10814 -19 -19 10814 -10814 19 19zm0 339l-10475 10475 -19 -19 10475 -10475 19 19zm0 339l-10136 10136 -19 -19 10136 -10136 19 19zm0 339l-9797 9797 -19 -19 9797 -9797 19 19zm0 339l-9458 9458 -19 -19 9458 -9458 19 19zm0 339l-9119 9119 -19 -19 9119 -9119 19 19zm0 339l-8780 8780 -19 -19 8780 -8780 19 19zm0 339l-8441 8441 -19 -19 8441 -8441 19 19zm0 339l-8102 8102 -19 -19 8102 -8102 19 19zm0 339l-7763 7763 -19 -19 7763 -7763 19 19zm0 339l-7423 7423 -19 -19 7423 -7423 19 19zm0 339l-7084 7084 -19 -19 7084 -7084 19 19zm0 339l-6745 6745 -19 -19 6745 -6745 19 19zm0 339l-6406 6406 -19 -19 6406 -6406 19 19zm0 339l-6067 6067 -19 -19 6067 -6067 19 19zm0 339l-5728 5728 -19 -19 5728 -5728 19 19zm0 339l-5389 5389 -19 -19 5389 -5389 19 19zm0 339l-5050 5050 -19 -19 5050 -5050 19 19zm0 339l-4711 4711 -19 -19 4711 -4711 19 19zm0 339l-4372 4372 -19 -19 4372 -4372 19 19zm0 339l-4032 4032 -19 -19 4032 -4032 19 19zm0 339l-3693 3693 -19 -19 3693 -3693 19 19zm0 339l-3354 3354 -19 -19 3354 -3354 19 19zm0 339l-3015 3015 -19 -19 3015 -3015 19 19zm0 339l-2676 2676 -19 -19 2676 -2676 19 19zm0 339l-2337 2337 -19 -19 2337 -2337 19 19zm0 339l-1998 1998 -19 -19 1998 -1998 19 19zm0 339l-1659 1659 -19 -19 1659 -1659 19 19zm0 339l-1320 1320 -19 -19 1320 -1320 19 19zm0 339l-981 981 -19 -19 981 -981 19 19zm0 339l-641 641 -19 -19 641 -641 19 19zm0 339l-302 302 -19 -19 302 -302 19 19zm0 -12886l-11358 11358 -19 -19 11358 -11358 19 19zm0 -339l-11358 11358 -19 -19 11358 -11358 19 19zm-11019 -5935l-339 339 -19 -19 339 -339 19 19zm339 0l-678 678 -19 -19 678 -678 19 19zm339 0l-1017 1017 -19 -19 1017 -1017 19 19zm339 0l-1356 1356 -19 -19 1356 -1356 19 19zm339 0l-1695 1695 -19 -19 1695 -1695 19 19zm339 0l-2035 2035 -19 -19 2035 -2035 19 19zm339 0l-2374 2374 -19 -19 2374 -2374 19 19zm339 0l-2713 2713 -19 -19 2713 -2713 19 19zm339 0l-3052 3052 -19 -19 3052 -3052 19 19zm339 0l-3391 3391 -19 -19 3391 -3391 19 19zm339 0l-3730 3730 -19 -19 3730 -3730 19 19zm339 0l-4069 4069 -19 -19 4069 -4069 19 19zm339 0l-4408 4408 -19 -19 4408 -4408 19 19zm339 0l-4747 4747 -19 -19 4747 -4747 19 19zm339 0l-5086 5086 -19 -19 5086 -5086 19 19zm339 0l-5426 5426 -19 -19 5426 -5426 19 19zm339 0l-5765 5765 -19 -19 5765 -5765 19 19zm339 0l-6104 6104 -19 -19 6104 -6104 19 19zm339 0l-6443 6443 -19 -19 6443 -6443 19 19zm339 0l-6782 6782 -19 -19 6782 -6782 19 19zm339 0l-7121 7121 -19 -19 7121 -7121 19 19zm339 0l-7460 7460 -19 -19 7460 -7460 19 19zm339 0l-7799 7799 -19 -19 7799 -7799 19 19zm339 0l-8138 8138 -19 -19 8138 -8138 19 19zm339 0l-8477 8477 -19 -19 8477 -8477 19 19zm339 0l-8816 8816 -19 -19 8816 -8816 19 19zm339 0l-9156 9156 -19 -19 9156 -9156 19 19zm339 0l-9495 9495 -19 -19 9495 -9495 19 19zm339 0l-9834 9834 -19 -19 9834 -9834 19 19zm339 0l-10173 10173 -19 -19 10173 -10173 19 19zm339 0l-10512 10512 -19 -19 10512 -10512 19 19zm339 0l-10851 10851 -19 -19 10851 -10851 19 19zm339 0l-11190 11190 -19 -19 11190 -11190 19 19zm168 171l-11358 11358 -19 -19 11358 -11358 19 19zm0 339l-11358 11358 -19 -19 11358 -11358 19 19zm0 339l-11358 11358 -19 -19 11358 -11358 19 19zm0 339l-11358 11358 -19 -19 11358 -11358 19 19zm0 339l-11358 11358 -19 -19 11358 -11358 19 19zm0 339l-11358 11358 -19 -19 11358 -11358 19 19zm0 339l-11358 11358 -19 -19 11358 -11358 19 19zm0 339l-11358 11358 -19 -19 11358 -11358 19 19zm0 339l-11358 11358 -19 -19 11358 -11358 19 19zm0 339l-11358 11358 -19 -19 11358 -11358 19 19zm0 339l-11358 11358 -19 -19 11358 -11358 19 19zm0 339l-11358 11358 -19 -19 11358 -11358 19 19zm0 339l-11358 11358 -19 -19 11358 -11358 19 19zm0 339l-11358 11358 -19 -19 11358 -11358 19 19zm0 339l-11358 11358 -19 -19 11358 -11358 19 19zm0 339l-11358 11358 -19 -19 11358 -11358 19 19zm0 339l-11358 11358 -19 -19 11358 -11358 19 19z"/>
   </g>
  </g>
  <g>
   <g>
    <path class="fil0" d="M13 27252l2049 0 0 27 -2049 0 -13 -13 13 -13zm0 27l-13 0 0 -13 13 13zm13 -2338l0 2324 -27 0 0 -2324 13 -13 13 13zm-27 0l0 -13 13 0 -13 13zm2063 13l-2049 0 0 -27 2049 0 13 13 -13 13zm0 -27l13 0 0 13 -13 -13zm-13 2338l0 -2324 27 0 0 2324 -13 13 -13 -13zm27 0l0 13 -13 0 13 -13z"/>
   </g>
   <g>
   </g>
   <g style="clip-path:url(#id3)">
   </g>
   <g>
    <g>
     <polygon class="fil0" points="345,24950 23,25272 4,25253 326,24931 "/>
    </g>
    <g>
     <polygon class="fil0" points="684,24950 23,25611 4,25592 665,24931 "/>
    </g>
    <g>
     <polygon class="fil0" points="1023,24950 23,25950 4,25931 1004,24931 "/>
    </g>
    <g>
     <polygon class="fil0" points="1362,24950 23,26289 4,26270 1343,24931 "/>
    </g>
    <g>
     <polygon class="fil0" points="1701,24950 23,26628 4,26609 1682,24931 "/>
    </g>
    <g>
     <polygon class="fil0" points="2040,24950 23,26967 4,26948 2021,24931 "/>
    </g>
    <g>
     <polygon class="fil0" points="2072,25257 55,27274 36,27255 2053,25238 "/>
    </g>
    <g>
     <polygon class="fil0" points="2072,25596 394,27274 375,27255 2053,25577 "/>
    </g>
    <g>
     <polygon class="fil0" points="2072,25935 733,27274 714,27255 2053,25916 "/>
    </g>
    <g>
     <polygon class="fil0" points="2072,26274 1072,27274 1053,27255 2053,26256 "/>
    </g>
    <g>
     <polygon class="fil0" points="2072,26614 1411,27274 1392,27255 2053,26595 "/>
    </g>
    <g>
     <polygon class="fil0" points="2072,26953 1750,27274 1732,27255 2053,26934 "/>
    </g>
   </g>
  </g>
  <g>
   <g>
    <path class="fil2" d="M9648 32464l-6648 0 0 -27 6648 0 13 13 -13 13zm13 -13l0 13 -13 0 13 -13zm0 -3899l0 3899 -27 0 0 -3899 13 -13 13 13zm-13 -13l13 0 0 13 -13 -13zm-6648 0l6648 0 0 27 -6648 0 -13 -13 13 -13zm-13 13l0 -13 13 0 -13 13zm0 3899l0 -3899 27 0 0 3899 -13 13 -13 -13zm13 13l-13 0 0 -13 13 13z"/>
   </g>
   <g>
   </g>
   <g style="clip-path:url(#id4)">
   </g>
   <g>
    <g>
     <polygon class="fil2" points="3027,28562 3010,28579 2991,28560 3008,28543 "/>
    </g>
    <g>
     <polygon class="fil2" points="3366,28562 3010,28918 2991,28899 3347,28543 "/>
    </g>
    <g>
     <polygon class="fil2" points="3705,28562 3010,29257 2991,29238 3686,28543 "/>
    </g>
    <g>
     <polygon class="fil2" points="4044,28562 3010,29596 2991,29577 4025,28543 "/>
    </g>
    <g>
     <polygon class="fil2" points="4383,28562 3010,29935 2991,29916 4364,28543 "/>
    </g>
    <g>
     <polygon class="fil2" points="4722,28562 3010,30274 2991,30255 4703,28543 "/>
    </g>
    <g>
     <polygon class="fil2" points="5061,28562 3010,30613 2991,30595 5042,28543 "/>
    </g>
    <g>
     <polygon class="fil2" points="5400,28562 3010,30952 2991,30934 5382,28543 "/>
    </g>
    <g>
     <polygon class="fil2" points="5739,28562 3010,31292 2991,31273 5721,28543 "/>
    </g>
    <g>
     <polygon class="fil2" points="6079,28562 3010,31631 2991,31612 6060,28543 "/>
    </g>
    <g>
     <polygon class="fil2" points="6418,28562 3010,31970 2991,31951 6399,28543 "/>
    </g>
    <g>
     <polygon class="fil2" points="6757,28562 3010,32309 2991,32290 6738,28543 "/>
    </g>
    <g>
     <polygon class="fil2" points="7096,28562 3197,32460 3178,32441 7077,28543 "/>
    </g>
    <g>
     <polygon class="fil2" points="7435,28562 3536,32460 3517,32441 7416,28543 "/>
    </g>
    <g>
     <polygon class="fil2" points="7774,28562 3875,32460 3857,32441 7755,28543 "/>
    </g>
    <g>
     <polygon class="fil2" points="8113,28562 4215,32460 4196,32441 8094,28543 "/>
    </g>
    <g>
     <polygon class="fil2" points="8452,28562 4554,32460 4535,32441 8433,28543 "/>
    </g>
    <g>
     <polygon class="fil2" points="8791,28562 4893,32460 4874,32441 8772,28543 "/>
    </g>
    <g>
     <polygon class="fil2" points="9130,28562 5232,32460 5213,32441 9112,28543 "/>
    </g>
    <g>
     <polygon class="fil2" points="9470,28562 5571,32460 5552,32441 9451,28543 "/>
    </g>
    <g>
     <polygon class="fil2" points="9657,28713 5910,32460 5891,32441 9638,28694 "/>
    </g>
    <g>
     <polygon class="fil2" points="9657,29052 6249,32460 6230,32441 9638,29033 "/>
    </g>
    <g>
     <polygon class="fil2" points="9657,29391 6588,32460 6569,32441 9638,29372 "/>
    </g>
    <g>
     <polygon class="fil2" points="9657,29730 6927,32460 6908,32441 9638,29712 "/>
    </g>
    <g>
     <polygon class="fil2" points="9657,30069 7266,32460 7248,32441 9638,30051 "/>
    </g>
    <g>
     <polygon class="fil2" points="9657,30409 7605,32460 7587,32441 9638,30390 "/>
    </g>
    <g>
     <polygon class="fil2" points="9657,30748 7945,32460 7926,32441 9638,30729 "/>
    </g>
    <g>
     <polygon class="fil2" points="9657,31087 8284,32460 8265,32441 9638,31068 "/>
    </g>
    <g>
     <polygon class="fil2" points="9657,31426 8623,32460 8604,32441 9638,31407 "/>
    </g>
    <g>
     <polygon class="fil2" points="9657,31765 8962,32460 8943,32441 9638,31746 "/>
    </g>
    <g>
     <polygon class="fil2" points="9657,32104 9301,32460 9282,32441 9638,32085 "/>
    </g>
    <g>
     <polygon class="fil2" points="9657,32443 9640,32460 9621,32441 9638,32424 "/>
    </g>
   </g>
   <g>
    <path class="fil3" d="M4203 30760l0 -517c0,-37 30,-66 67,-66l220 0c21,0 41,2 61,6 21,4 40,10 57,18 18,9 34,19 48,31 12,10 22,22 31,35l0 -24c0,-37 30,-66 67,-66l95 0c20,0 38,9 50,22 12,-14 30,-22 50,-22l220 0c21,0 41,2 61,6 21,4 40,10 57,18 18,9 34,19 48,31 12,10 22,22 31,35l0 -24c0,-37 30,-66 67,-66l95 0c37,0 67,30 67,66l0 368 151 0 0 -368c0,-37 30,-66 67,-66l95 0c37,0 67,30 67,66l0 80 7 -10c12,-18 26,-35 42,-50 31,-30 67,-54 109,-70 20,-8 42,-14 65,-18 23,-4 45,-6 68,-6 23,0 46,2 68,6 22,4 44,10 65,19 21,8 40,18 58,30 13,8 25,17 36,27l0 -7c0,-37 30,-66 67,-66l364 0c10,0 20,2 29,7 9,-4 19,-7 29,-7l346 0c37,0 67,30 67,66l0 35c4,-5 9,-10 13,-15l0 0c30,-30 65,-53 105,-70l0 0c20,-8 41,-14 63,-19 22,-4 44,-6 66,-6 46,0 88,8 127,24 19,8 36,17 52,27l0 0c16,10 31,23 45,37 14,14 25,28 35,43 10,16 18,32 24,49 12,34 -5,72 -40,85l-80 37c-33,15 -73,1 -89,-32l-2 -5c-2,-7 -6,-13 -10,-18 -4,-6 -10,-11 -16,-15 -6,-4 -12,-7 -18,-9l0 0c-8,-2 -17,-3 -27,-3 -11,0 -20,1 -29,3 -8,2 -16,5 -22,9 -7,4 -13,9 -19,16 -6,6 -11,13 -15,21l0 0c-4,8 -7,18 -10,28l0 2c-2,10 -3,22 -3,35 0,14 1,26 4,37 2,11 6,20 10,28 4,9 9,16 15,22 5,6 12,11 19,15 7,4 14,7 22,9 9,2 18,3 29,3 19,0 34,-4 45,-12 6,-5 12,-10 16,-16 4,-6 8,-12 10,-18 13,-34 51,-52 86,-39l6 3 84 39 122 -351c10,-28 36,-45 63,-45l123 0c30,0 56,20 64,47l179 515c12,35 -7,72 -42,84 -7,2 -15,4 -22,4l-104 0c-31,0 -57,-20 -65,-48l-21 -63 -105 0 -22 66c-9,28 -35,45 -63,45l0 0 -103 0c-31,0 -58,-21 -65,-50l-10 7 -4 3c-15,9 -31,18 -48,25 -19,8 -40,14 -61,18 -21,4 -43,6 -65,6 -23,0 -45,-2 -67,-6 -22,-4 -43,-11 -63,-19 -40,-17 -74,-41 -104,-71 -5,-5 -9,-10 -14,-15l0 37c0,37 -30,66 -67,66l-346 0c-37,0 -67,-30 -67,-66l0 -368 -57 0 0 368c0,37 -30,66 -67,66l-96 0c-37,0 -67,-30 -67,-66l0 -368 -39 0c5,13 8,27 11,41 4,22 6,45 6,68 0,23 -2,46 -7,68 -4,22 -11,43 -20,64 -8,20 -19,39 -31,57l0 0c-12,18 -26,34 -42,49 -15,15 -32,28 -50,40 -18,12 -37,22 -58,30 -21,8 -42,15 -65,19 -23,4 -45,6 -68,6 -23,0 -45,-2 -68,-6 -22,-4 -43,-10 -64,-19 -21,-9 -41,-19 -58,-30 -18,-12 -35,-25 -50,-40 -15,-15 -29,-32 -42,-50l-7 -11 0 82c0,37 -30,66 -67,66l-95 0c-11,0 -22,-3 -31,-7 -9,5 -20,7 -31,7l-318 0c-37,0 -67,-30 -67,-66l0 -7c-5,5 -10,10 -16,15l0 0c-23,20 -51,35 -83,45 -30,9 -62,14 -98,14l-220 0c-20,0 -38,-9 -50,-22 -12,14 -30,22 -50,22l-95 0c-37,0 -67,-30 -67,-66l0 -7c-5,5 -10,10 -16,15l0 0c-23,20 -51,35 -83,45 -30,9 -62,14 -98,14l-220 0c-37,0 -67,-30 -67,-66zm229 -150l67 0c5,0 9,0 11,-1l2 -1c0,-1 1,-3 1,-6 0,-3 0,-5 -1,-6 -1,-1 -3,-2 -4,-2 -2,-1 -6,-1 -10,-1l-67 0 0 18zm679 0l67 0c5,0 9,0 11,-1l2 -1c0,0 0,0 0,0l0 0c0,-1 0,-3 0,-6 0,-3 0,-5 -1,-6l-2 -2c-2,-1 -6,-1 -11,-1l-67 0 0 18zm1153 6c9,0 17,-1 24,-2 7,-1 14,-3 20,-6 7,-3 14,-6 19,-10 5,-4 11,-8 16,-13 5,-5 9,-10 13,-16 4,-6 7,-12 10,-19 2,-6 4,-14 6,-23 1,-8 2,-17 2,-26 0,-18 -3,-34 -8,-48 -3,-7 -6,-13 -10,-19 -4,-6 -8,-11 -13,-16 -5,-5 -10,-10 -16,-13 -5,-4 -11,-7 -18,-10 -6,-3 -13,-5 -21,-6 -7,-1 -15,-2 -25,-2 -9,0 -17,1 -24,2 -7,1 -14,3 -20,6 -7,3 -13,6 -18,10 -5,4 -11,8 -16,13 -10,10 -18,22 -23,36 -3,7 -5,14 -6,22 -1,7 -2,16 -2,25 0,18 3,34 9,48 3,7 6,13 10,19 4,6 8,11 13,16 5,5 11,10 16,13 5,4 12,7 19,10 6,3 13,5 20,6l0 0c7,1 15,2 24,2zm1066 -223l-11 0c4,0 7,1 11,2l1 -2zm-1 214c-5,1 -11,2 -17,2l-170 0 0 2 188 0 -1 -4z"/>
    <path class="fil4" d="M4270 30760l0 -517 220 0c35,0 64,6 89,18 24,12 43,28 57,50 13,22 20,48 20,78 0,24 -6,46 -19,66 -13,21 -33,38 -61,51l0 -44c26,10 46,22 61,36 15,14 25,30 31,48 6,18 9,36 9,56 0,50 -16,88 -49,116 -33,28 -78,42 -137,42l-220 0zm95 -83l134 0c25,0 44,-7 59,-20 15,-14 22,-32 22,-55 0,-23 -7,-41 -22,-55 -15,-14 -34,-21 -59,-21l-134 0 0 151zm0 -233l129 0c20,0 35,-6 47,-17 12,-11 18,-26 18,-44 0,-18 -6,-32 -18,-43 -12,-11 -27,-16 -47,-16l-129 0 0 120zm388 317l0 -517 95 0 0 517 -95 0zm195 0l0 -517 220 0c35,0 64,6 89,18 24,12 43,28 57,50 13,22 20,48 20,78 0,24 -6,46 -19,66 -13,21 -33,38 -61,51l0 -44c26,10 46,22 61,36 15,14 25,30 31,48 6,18 9,36 9,56 0,50 -16,88 -49,116 -33,28 -78,42 -137,42l-220 0zm95 -83l134 0c25,0 44,-7 59,-20 15,-14 22,-32 22,-55 0,-23 -7,-41 -22,-55 -15,-14 -34,-21 -59,-21l-134 0 0 151zm0 -233l129 0c20,0 35,-6 47,-17 12,-11 18,-26 18,-44 0,-18 -6,-32 -18,-43 -12,-11 -27,-16 -47,-16l-129 0 0 120zm388 317l0 -517 95 0 0 434 223 0 0 83 -318 0zm380 0l0 -517 95 0 0 517 -95 0zm452 8c-38,0 -74,-7 -107,-20 -33,-13 -62,-32 -87,-56 -25,-24 -44,-52 -58,-85 -14,-33 -21,-68 -21,-106 0,-38 7,-74 20,-106 14,-32 33,-61 57,-85 25,-24 54,-43 87,-56 33,-13 69,-20 108,-20 39,0 75,7 108,20 33,13 62,32 87,56 25,24 44,52 58,84 14,32 21,68 21,106 0,38 -7,73 -21,106 -14,33 -33,61 -58,85 -25,24 -54,43 -86,56 -33,13 -69,20 -107,20zm0 -86c26,0 49,-5 71,-14 21,-9 40,-22 56,-38 16,-16 28,-35 37,-58 9,-22 13,-46 13,-72 0,-26 -4,-50 -13,-72 -9,-22 -21,-41 -37,-58 -16,-16 -35,-29 -56,-38 -21,-9 -45,-13 -71,-13 -25,0 -49,4 -70,13 -21,9 -40,21 -56,38 -16,16 -29,36 -37,58 -9,22 -13,46 -13,72 0,26 4,50 13,72 9,22 21,41 37,58 16,16 35,29 56,38 21,9 45,14 70,14zm429 78l0 -434 -135 0 0 -83 364 0 0 83 -133 0 0 434 -96 0zm287 0l0 -517 346 0 0 83 -251 0 0 133 237 0 0 83 -237 0 0 135 251 0 0 83 -346 0zm661 8c-37,0 -72,-7 -103,-20 -31,-13 -59,-32 -83,-56 -24,-24 -42,-52 -55,-85 -13,-32 -20,-68 -20,-106 0,-38 6,-74 19,-107 13,-33 31,-61 55,-85 24,-24 51,-42 83,-56 32,-13 66,-20 104,-20 37,0 71,6 100,19 30,13 55,29 75,50 21,21 35,43 44,68l-85 40c-10,-26 -26,-47 -50,-64 -23,-17 -52,-25 -85,-25 -33,0 -61,8 -86,23 -25,15 -44,36 -58,63 -14,27 -21,58 -21,94 0,36 7,68 21,95 14,27 33,48 58,64 25,15 54,23 86,23 33,0 61,-8 85,-25 23,-17 40,-38 50,-64l85 40c-9,25 -24,47 -44,68 -21,21 -46,37 -75,50 -30,13 -63,19 -100,19zm254 -8l180 -517 123 0 180 517 -104 0 -37 -111 -202 0 -38 111 -103 0zm168 -194l147 0 -87 -258 27 0 -87 258z"/>
   </g>
  </g>
  <g>
   <g>
   </g>
   <g style="clip-path:url(#id5)">
   </g>
   <polygon class="fil5 str1" points="3450,15482 8948,15482 8948,3686 3450,3686 "/>
   <g>
    <g>
     <polygon class="fil0" points="3798,3696 3459,4035 3440,4016 3779,3677 "/>
    </g>
    <g>
     <polygon class="fil0" points="4137,3696 3459,4374 3440,4355 4118,3677 "/>
    </g>
    <g>
     <polygon class="fil0" points="4476,3696 3459,4713 3440,4694 4458,3677 "/>
    </g>
    <g>
     <polygon class="fil0" points="4816,3696 3459,5052 3440,5033 4797,3677 "/>
    </g>
    <g>
     <polygon class="fil0" points="5155,3696 3459,5391 3440,5372 5136,3677 "/>
    </g>
    <g>
     <polygon class="fil0" points="5494,3696 3459,5730 3440,5711 5475,3677 "/>
    </g>
    <g>
     <polygon class="fil0" points="5833,3696 3459,6069 3440,6051 5814,3677 "/>
    </g>
    <g>
     <polygon class="fil0" points="6172,3696 3459,6408 3440,6390 6153,3677 "/>
    </g>
    <g>
     <polygon class="fil0" points="6511,3696 3459,6748 3440,6729 6492,3677 "/>
    </g>
    <g>
     <polygon class="fil0" points="6850,3696 3459,7087 3440,7068 6831,3677 "/>
    </g>
    <g>
     <polygon class="fil0" points="7189,3696 3459,7426 3440,7407 7170,3677 "/>
    </g>
    <g>
     <polygon class="fil0" points="7528,3696 3459,7765 3440,7746 7509,3677 "/>
    </g>
    <g>
     <polygon class="fil0" points="7867,3696 3459,8104 3440,8085 7849,3677 "/>
    </g>
    <g>
     <polygon class="fil0" points="8206,3696 3459,8443 3440,8424 8188,3677 "/>
    </g>
    <g>
     <polygon class="fil0" points="8546,3696 3459,8782 3440,8763 8527,3677 "/>
    </g>
    <g>
     <polygon class="fil0" points="8885,3696 3459,9121 3440,9102 8866,3677 "/>
    </g>
    <g>
     <polygon class="fil0" points="8957,3962 3459,9460 3440,9441 8938,3943 "/>
    </g>
    <g>
     <polygon class="fil0" points="8957,4301 3459,9799 3440,9781 8938,4282 "/>
    </g>
    <g>
     <polygon class="fil0" points="8957,4640 3459,10139 3440,10120 8938,4622 "/>
    </g>
    <g>
     <polygon class="fil0" points="8957,4980 3459,10478 3440,10459 8938,4961 "/>
    </g>
    <g>
     <polygon class="fil0" points="8957,5319 3459,10817 3440,10798 8938,5300 "/>
    </g>
    <g>
     <polygon class="fil0" points="8957,5658 3459,11156 3440,11137 8938,5639 "/>
    </g>
    <g>
     <polygon class="fil0" points="8957,5997 3459,11495 3440,11476 8938,5978 "/>
    </g>
    <g>
     <polygon class="fil0" points="8957,6336 3459,11834 3440,11815 8938,6317 "/>
    </g>
    <g>
     <polygon class="fil0" points="8957,6675 3459,12173 3440,12154 8938,6656 "/>
    </g>
    <g>
     <polygon class="fil0" points="8957,7014 3459,12512 3440,12493 8938,6995 "/>
    </g>
    <g>
     <polygon class="fil0" points="8957,7353 3459,12851 3440,12832 8938,7334 "/>
    </g>
    <g>
     <polygon class="fil0" points="8957,7692 3459,13190 3440,13172 8938,7673 "/>
    </g>
    <g>
     <polygon class="fil0" points="8957,8031 3459,13529 3440,13511 8938,8013 "/>
    </g>
    <g>
     <polygon class="fil0" points="8957,8371 3459,13869 3440,13850 8938,8352 "/>
    </g>
    <g>
     <polygon class="fil0" points="8957,8710 3459,14208 3440,14189 8938,8691 "/>
    </g>
    <g>
     <polygon class="fil0" points="8957,9049 3459,14547 3440,14528 8938,9030 "/>
    </g>
    <g>
     <polygon class="fil0" points="8957,9388 3459,14886 3440,14867 8938,9369 "/>
    </g>
    <g>
     <polygon class="fil0" points="8957,9727 3459,15225 3440,15206 8938,9708 "/>
    </g>
    <g>
     <polygon class="fil0" points="8957,10066 3532,15492 3513,15473 8938,10047 "/>
    </g>
    <g>
     <polygon class="fil0" points="8957,10405 3871,15492 3852,15473 8938,10386 "/>
    </g>
    <g>
     <polygon class="fil0" points="8957,10744 4210,15492 4191,15473 8938,10725 "/>
    </g>
    <g>
     <polygon class="fil0" points="8957,11083 4549,15492 4530,15473 8938,11064 "/>
    </g>
    <g>
     <polygon class="fil0" points="8957,11422 4888,15492 4869,15473 8938,11404 "/>
    </g>
    <g>
     <polygon class="fil0" points="8957,11761 5227,15492 5208,15473 8938,11743 "/>
    </g>
    <g>
     <polygon class="fil0" points="8957,12101 5566,15492 5547,15473 8938,12082 "/>
    </g>
    <g>
     <polygon class="fil0" points="8957,12440 5905,15492 5886,15473 8938,12421 "/>
    </g>
    <g>
     <polygon class="fil0" points="8957,12779 6244,15492 6226,15473 8938,12760 "/>
    </g>
    <g>
     <polygon class="fil0" points="8957,13118 6584,15492 6565,15473 8938,13099 "/>
    </g>
    <g>
     <polygon class="fil0" points="8957,13457 6923,15492 6904,15473 8938,13438 "/>
    </g>
    <g>
     <polygon class="fil0" points="8957,13796 7262,15492 7243,15473 8938,13777 "/>
    </g>
    <g>
     <polygon class="fil0" points="8957,14135 7601,15492 7582,15473 8938,14116 "/>
    </g>
    <g>
     <polygon class="fil0" points="8957,14474 7940,15492 7921,15473 8938,14455 "/>
    </g>
    <g>
     <polygon class="fil0" points="8957,14813 8279,15492 8260,15473 8938,14794 "/>
    </g>
    <g>
     <polygon class="fil0" points="8957,15152 8618,15492 8599,15473 8938,15134 "/>
    </g>
   </g>
  </g>
  <g>
   <g>
    <path class="fil0" d="M48405 27605l-1848 1848 -19 -19 1848 -1848 19 19zm139 200l-1987 1987 -19 -19 1987 -1987 19 19zm0 339l-1987 1987 -19 -19 1987 -1987 19 19zm0 339l-1987 1987 -19 -19 1987 -1987 19 19zm0 339l-1720 1720 -19 -19 1720 -1720 19 19zm0 339l-1381 1381 -19 -19 1381 -1381 19 19zm0 339l-1042 1042 -19 -19 1042 -1042 19 19zm0 339l-703 703 -19 -19 703 -703 19 19zm0 339l-364 364 -19 -19 364 -364 19 19zm0 339l-25 25 -19 -19 25 -25 19 19zm-478 -2913l-1509 1509 -19 -19 1509 -1509 19 19zm-339 0l-1170 1170 -19 -19 1170 -1170 19 19zm-1017 0l-153 153 -19 -19 153 -153 19 19zm339 0l-492 492 -19 -19 492 -492 19 19zm339 0l-831 831 -19 -19 831 -831 19 19z"/>
   </g>
   <g>
    <path class="fil0" d="M48534 27608l-1987 0 0 -27 1987 0 13 13 -13 13zm0 -27l13 0 0 13 -13 -13zm-13 2951l0 -2938 27 0 0 2938 -13 13 -13 -13zm27 0l0 13 -13 0 13 -13zm-2000 -13l1987 0 0 27 -1987 0 -13 -13 13 -13zm0 27l-13 0 0 -13 13 13zm13 -2951l0 2938 -27 0 0 -2938 13 -13 13 13zm-27 0l0 -13 13 0 -13 13z"/>
   </g>
  </g>
  <g>
   <g>
    <path class="fil0" d="M48543 27466l-139 139 -19 -19 139 -139 19 19zm0 -339l-478 478 -19 -19 478 -478 19 19zm0 -339l-817 817 -19 -19 817 -817 19 19zm-1839 -1552l-148 148 -19 -19 148 -148 19 19zm339 0l-487 487 -19 -19 487 -487 19 19zm339 0l-826 826 -19 -19 826 -826 19 19zm339 0l-1165 1165 -19 -19 1165 -1165 19 19zm339 0l-1504 1504 -19 -19 1504 -1504 19 19zm339 0l-1844 1844 -19 -19 1844 -1844 19 19zm143 196l-1987 1987 -19 -19 1987 -1987 19 19zm0 339l-1834 1834 -19 -19 1834 -1834 19 19zm0 339l-1495 1495 -19 -19 1495 -1495 19 19zm0 339l-1156 1156 -19 -19 1156 -1156 19 19z"/>
   </g>
   <g>
    <path class="fil0" d="M48534 25239l-1987 0 0 -27 1987 0 13 13 -13 13zm0 -27l13 0 0 13 -13 -13zm-13 2382l0 -2369 27 0 0 2369 -13 13 -13 -13zm27 0l0 13 -13 0 13 -13zm-2000 -13l1987 0 0 27 -1987 0 -13 -13 13 -13zm0 27l-13 0 0 -13 13 13zm13 -2382l0 2369 -27 0 0 -2369 13 -13 13 13zm-27 0l0 -13 13 0 -13 13z"/>
   </g>
  </g>
  <g>
   <g>
    <path class="fil0" d="M38011 20365l-339 339 -19 -19 339 -339 19 19zm339 0l-678 678 -19 -19 678 -678 19 19zm339 0l-1017 1017 -19 -19 1017 -1017 19 19zm339 0l-1356 1356 -19 -19 1356 -1356 19 19zm339 0l-1695 1695 -19 -19 1695 -1695 19 19zm339 0l-2035 2035 -19 -19 2035 -2035 19 19zm339 0l-2374 2374 -19 -19 2374 -2374 19 19zm339 0l-2713 2713 -19 -19 2713 -2713 19 19zm339 0l-3052 3052 -19 -19 3052 -3052 19 19zm339 0l-3391 3391 -19 -19 3391 -3391 19 19zm339 0l-3730 3730 -19 -19 3730 -3730 19 19zm339 0l-4069 4069 -19 -19 4069 -4069 19 19zm339 0l-4408 4408 -19 -19 4408 -4408 19 19zm339 0l-4747 4747 -19 -19 4747 -4747 19 19zm339 0l-4871 4871 -19 -19 4871 -4871 19 19zm339 0l-4871 4871 -19 -19 4871 -4871 19 19zm339 0l-4871 4871 -19 -19 4871 -4871 19 19zm339 0l-4871 4871 -19 -19 4871 -4871 19 19zm339 0l-4871 4871 -19 -19 4871 -4871 19 19zm339 0l-4871 4871 -19 -19 4871 -4871 19 19zm339 0l-4871 4871 -19 -19 4871 -4871 19 19zm339 0l-4871 4871 -19 -19 4871 -4871 19 19zm339 0l-4871 4871 -19 -19 4871 -4871 19 19zm339 0l-4871 4871 -19 -19 4871 -4871 19 19zm339 0l-4871 4871 -19 -19 4871 -4871 19 19zm339 0l-4871 4871 -19 -19 4871 -4871 19 19zm339 0l-4871 4871 -19 -19 4871 -4871 19 19zm339 0l-4871 4871 -19 -19 4871 -4871 19 19zm339 0l-4871 4871 -19 -19 4871 -4871 19 19zm339 0l-4871 4871 -19 -19 4871 -4871 19 19zm339 0l-4871 4871 -19 -19 4871 -4871 19 19zm339 0l-4871 4871 -19 -19 4871 -4871 19 19zm20 319l-4552 4552 -19 -19 4552 -4552 19 19zm0 339l-4213 4213 -19 -19 4213 -4213 19 19zm0 339l-3874 3874 -19 -19 3874 -3874 19 19zm0 339l-3534 3534 -19 -19 3534 -3534 19 19zm0 339l-3195 3195 -19 -19 3195 -3195 19 19zm0 339l-2856 2856 -19 -19 2856 -2856 19 19zm0 339l-2517 2517 -19 -19 2517 -2517 19 19zm0 339l-2178 2178 -19 -19 2178 -2178 19 19zm0 339l-1839 1839 -19 -19 1839 -1839 19 19zm0 339l-1500 1500 -19 -19 1500 -1500 19 19zm0 339l-1161 1161 -19 -19 1161 -1161 19 19zm0 339l-822 822 -19 -19 822 -822 19 19zm0 339l-483 483 -19 -19 483 -483 19 19zm0 339l-143 143 -19 -19 143 -143 19 19z"/>
   </g>
   <g>
    <path class="fil0" d="M48534 25239l-10871 0 0 -26 10871 0 13 13 -13 13zm13 -13l0 13 -13 0 13 -13zm0 -4871l0 4871 -26 0 0 -4871 13 -13 13 13zm-13 -13l13 0 0 13 -13 -13zm-10871 0l10871 0 0 26 -10871 0 -13 -13 13 -13zm-13 13l0 -13 13 0 -13 13zm0 4871l0 -4871 26 0 0 4871 -13 13 -13 -13zm13 13l-13 0 0 -13 13 13z"/>
   </g>
  </g>
  <g>
   <g>
    <path class="fil0" d="M37888 25235l-216 216 -19 -19 216 -216 19 19zm339 0l-555 555 -19 -19 555 -555 19 19zm339 0l-894 894 -19 -19 894 -894 19 19zm339 0l-1233 1233 -19 -19 1233 -1233 19 19zm339 0l-1572 1572 -19 -19 1572 -1572 19 19zm339 0l-1911 1911 -19 -19 1911 -1911 19 19zm339 0l-2250 2250 -19 -19 2250 -2250 19 19zm339 0l-2589 2589 -19 -19 2589 -2589 19 19zm339 0l-2928 2928 -19 -19 2928 -2928 19 19zm339 0l-3268 3268 -19 -19 3268 -3268 19 19zm339 0l-3607 3607 -19 -19 3607 -3607 19 19zm339 0l-3946 3946 -19 -19 3946 -3946 19 19zm339 0l-4285 4285 -19 -19 4285 -4285 19 19zm339 0l-4624 4624 -19 -19 4624 -4624 19 19zm339 0l-4963 4963 -19 -19 4963 -4963 19 19zm339 0l-5302 5302 -19 -19 5302 -5302 19 19zm339 0l-5326 5326 -19 -19 5326 -5326 19 19zm339 0l-5326 5326 -19 -19 5326 -5326 19 19zm339 0l-5326 5326 -19 -19 5326 -5326 19 19zm339 0l-5326 5326 -19 -19 5326 -5326 19 19zm339 0l-5326 5326 -19 -19 5326 -5326 19 19zm339 0l-5326 5326 -19 -19 5326 -5326 19 19zm-2312 2651l-2675 2675 -19 -19 2675 -2675 19 19zm2651 -2651l-2369 2369 -19 -19 2369 -2369 19 19zm-2651 2990l-2336 2336 -19 -19 2336 -2336 19 19zm2990 -2990l-2369 2369 -19 -19 2369 -2369 19 19zm-2990 3329l-1997 1997 -19 -19 1997 -1997 19 19zm3329 -3329l-2369 2369 -19 -19 2369 -2369 19 19zm-3329 3668l-1657 1657 -19 -19 1657 -1657 19 19zm3668 -3668l-2369 2369 -19 -19 2369 -2369 19 19zm-3668 4007l-1318 1318 -19 -19 1318 -1318 19 19zm3859 -3859l-2221 2221 -19 -19 2221 -2221 19 19zm-3859 4198l-979 979 -19 -19 979 -979 19 19zm3859 -3859l-1882 1882 -19 -19 1882 -1882 19 19zm-3859 4198l-640 640 -19 -19 640 -640 19 19zm3859 -3859l-1543 1543 -19 -19 1543 -1543 19 19zm-3859 4198l-301 301 -19 -19 301 -301 19 19zm3859 -3859l-1204 1204 -19 -19 1204 -1204 19 19zm0 339l-865 865 -19 -19 865 -865 19 19zm0 339l-526 526 -19 -19 526 -526 19 19zm0 339l-186 186 -19 -19 186 -186 19 19z"/>
   </g>
   <g>
    <path class="fil0" d="M46547 25239l-3859 0 0 -27 3859 0 13 13 -13 13zm0 -27l13 0 0 13 -13 -13zm-13 2382l0 -2369 27 0 0 2369 -13 13 -13 -13zm27 0l0 13 -13 0 13 -13zm-3873 -13l3859 0 0 27 -3859 0 -13 -13 13 -13zm-13 13l0 -13 13 0 -13 13zm0 2957l0 -2957 27 0 0 2957 -13 13 -13 -13zm27 0l0 13 -13 0 13 -13zm-5038 -13l5025 0 0 27 -5025 0 -13 -13 13 -13zm0 27l-13 0 0 -13 13 13zm13 -5339l0 5326 -27 0 0 -5326 13 -13 13 13zm-27 0l0 -13 13 0 -13 13zm5038 13l-5025 0 0 -27 5025 0 0 0 0 27z"/>
   </g>
  </g>
  <g>
   <g>
    <path class="fil6" d="M30993 16029l-309 309 -19 -19 309 -309 19 19zm339 0l-648 648 -19 -19 648 -648 19 19zm339 0l-987 987 -19 -19 987 -987 19 19zm339 0l-1326 1326 -19 -19 1326 -1326 19 19zm339 0l-1665 1665 -19 -19 1665 -1665 19 19zm339 0l-2004 2004 -19 -19 2004 -2004 19 19zm339 0l-2343 2343 -19 -19 2343 -2343 19 19zm339 0l-2682 2682 -19 -19 2682 -2682 19 19zm339 0l-3021 3021 -19 -19 3021 -3021 19 19zm258 81l-3279 3279 -19 -19 3279 -3279 19 19zm0 339l-3279 3279 -19 -19 3279 -3279 19 19zm0 339l-3279 3279 -19 -19 3279 -3279 19 19zm0 339l-3035 3035 -19 -19 3035 -3035 19 19zm0 339l-2696 2696 -19 -19 2696 -2696 19 19zm0 339l-2357 2357 -19 -19 2357 -2357 19 19zm0 339l-2018 2018 -19 -19 2018 -2018 19 19zm0 339l-1679 1679 -19 -19 1679 -1679 19 19zm0 339l-1340 1340 -19 -19 1340 -1340 19 19zm0 339l-1001 1001 -19 -19 1001 -1001 19 19zm0 339l-662 662 -19 -19 662 -662 19 19zm0 339l-323 323 -19 -19 323 -323 19 19z"/>
   </g>
   <g>
    <path class="fil6" d="M30687 16019l0 4133 -27 0 0 -4133 13 -13 13 13zm-27 0l0 -13 13 0 -13 13zm3292 13l-3279 0 0 -27 3279 0 13 13 -13 13zm0 -27l13 0 0 13 -13 -13zm-13 4146l0 -4133 27 0 0 4133 -13 13 -13 -13zm27 0l0 13 -13 0 13 -13zm-3292 -13l3279 0 0 27 -3279 0 -13 -13 13 -13zm0 27l-13 0 0 -13 13 13z"/>
   </g>
   <g>
    <path class="fil3" d="M31827 18348l0 -72c0,-20 9,-37 22,-49l138 -143c27,-29 48,-51 63,-67 6,-7 11,-13 15,-19 4,-5 6,-9 7,-11 1,-1 1,-3 2,-5l0 -4 0 -3 -1 0 -5 0c-7,0 -13,2 -17,5 -2,2 -4,4 -6,7 -3,4 -5,9 -7,16 -11,35 -48,55 -83,45l-84 -26c-35,-11 -55,-47 -44,-82 4,-18 9,-34 17,-49 8,-17 18,-33 31,-47 12,-14 25,-26 40,-37 15,-11 30,-20 47,-27 17,-7 34,-13 52,-17 18,-4 36,-6 54,-6 43,0 82,8 117,25 18,9 34,19 49,31 11,9 21,20 29,31l0 -12c0,-37 30,-66 67,-66l220 0c21,0 41,2 61,6 21,4 40,10 57,18 18,9 34,19 48,31 14,13 27,27 37,44 10,17 18,35 23,54 5,18 7,38 7,59 0,30 -7,58 -20,84 3,4 6,8 9,12 8,13 15,26 20,40 4,12 7,25 9,38 2,14 3,27 3,39 0,34 -6,64 -18,92 -12,29 -31,54 -55,75l0 0c-23,20 -51,35 -83,45 -30,9 -62,14 -98,14l-220 0c-16,0 -31,-6 -43,-15 -12,10 -27,15 -43,15l-350 0c-37,0 -67,-30 -67,-66zm436 -252c-4,7 -9,14 -14,20l-2 2c-15,20 -35,43 -58,67l-15 16 70 0c7,0 13,1 19,3l0 -108zm229 102l67 0c5,0 9,0 11,-1l2 -1c0,0 0,0 0,0l0 0c0,-1 0,-3 0,-6 0,-3 0,-5 -1,-6l-2 -2c-2,-1 -6,-1 -11,-1l-67 0 0 18z"/>
    <path class="fil4" d="M31894 18348l0 -72 141 -147c28,-29 50,-52 65,-70 15,-17 26,-32 32,-45 6,-13 9,-25 9,-38 0,-22 -7,-39 -21,-51 -14,-13 -31,-19 -53,-19 -22,0 -42,6 -58,19 -16,13 -28,31 -36,56l-83 -26c6,-27 17,-51 34,-71 17,-20 38,-36 63,-47 25,-11 51,-16 79,-16 34,0 63,6 89,18 25,12 45,29 59,51 14,22 21,47 21,76 0,19 -3,37 -10,55 -7,18 -18,36 -31,55 -14,19 -32,40 -55,63l-122 128 226 0 0 80 -350 0zm436 0l0 -517 220 0c35,0 64,6 89,18 24,12 43,28 57,50 13,22 20,48 20,78 0,24 -6,46 -19,66 -13,21 -33,38 -61,51l0 -44c26,10 46,22 61,36 15,14 25,30 31,48 6,18 9,36 9,56 0,50 -16,88 -49,116 -33,28 -78,42 -137,42l-220 0zm95 -83l134 0c25,0 44,-7 59,-20 15,-14 22,-32 22,-55 0,-23 -7,-41 -22,-55 -15,-14 -34,-21 -59,-21l-134 0 0 151zm0 -233l129 0c20,0 35,-6 47,-17 12,-11 18,-26 18,-44 0,-18 -6,-32 -18,-43 -12,-11 -27,-16 -47,-16l-129 0 0 120z"/>
   </g>
  </g>
  <g>
   <g>
    <path class="fil6" d="M30928 20161l-244 244 -19 -19 244 -244 19 19zm339 0l-583 583 -19 -19 583 -583 19 19zm339 0l-922 922 -19 -19 922 -922 19 19zm339 0l-1261 1261 -19 -19 1261 -1261 19 19zm339 0l-1600 1600 -19 -19 1600 -1600 19 19zm339 0l-1939 1939 -19 -19 1939 -1939 19 19zm339 0l-2278 2278 -19 -19 2278 -2278 19 19zm339 0l-2617 2617 -19 -19 2617 -2617 19 19zm339 0l-2956 2956 -19 -19 2956 -2956 19 19zm323 16l-3279 3279 -19 -19 3279 -3279 19 19zm0 339l-3279 3279 -19 -19 3279 -3279 19 19zm0 339l-3279 3279 -19 -19 3279 -3279 19 19zm0 339l-3100 3100 -19 -19 3100 -3100 19 19zm0 339l-2761 2761 -19 -19 2761 -2761 19 19zm0 339l-2422 2422 -19 -19 2422 -2422 19 19zm0 339l-2083 2083 -19 -19 2083 -2083 19 19zm0 339l-1744 1744 -19 -19 1744 -1744 19 19zm0 339l-1405 1405 -19 -19 1405 -1405 19 19zm0 339l-1066 1066 -19 -19 1066 -1066 19 19zm0 339l-728 728 -19 -19 728 -728 19 19zm0 339l-389 389 -19 -19 389 -389 19 19zm0 339l-50 50 -19 -19 50 -50 19 19z"/>
   </g>
   <g>
    <path class="fil6" d="M30687 20152l0 4133 -27 0 0 -4133 13 -13 13 13zm-27 0l0 -13 13 0 -13 13zm3292 13l-3279 0 0 -27 3279 0 13 13 -13 13zm0 -27l13 0 0 13 -13 -13zm-13 4146l0 -4133 27 0 0 4133 -13 13 -13 -13zm27 0l0 13 -13 0 13 -13zm-3292 -13l3279 0 0 27 -3279 0 -13 -13 13 -13zm0 27l-13 0 0 -13 13 13z"/>
   </g>
   <g>
    <path class="fil3" d="M31798 22477l0 -72c0,-20 9,-37 22,-49l138 -143c27,-29 48,-51 63,-67 6,-7 11,-13 15,-19 4,-5 6,-9 7,-11 1,-1 1,-3 2,-5l0 -4 0 -3 -1 0 -5 0c-7,0 -13,2 -17,5 -2,2 -4,4 -6,7 -3,4 -5,9 -7,16 -11,35 -48,55 -83,45l-84 -26c-35,-11 -55,-47 -44,-82 4,-18 10,-34 17,-49l3 -6c8,-15 17,-29 28,-41 12,-14 25,-26 40,-37 15,-11 30,-20 47,-27 17,-7 34,-13 52,-17 18,-4 36,-6 54,-6 43,0 82,8 117,25 19,9 35,19 49,31l4 4c13,12 24,25 34,40l2 3c10,16 17,32 22,50l5 -7c12,-19 25,-35 40,-50l4 -4c14,-13 29,-25 45,-36 18,-12 36,-22 56,-30l0 0c20,-8 41,-14 63,-19 22,-4 44,-6 66,-6 46,0 88,8 127,24 19,8 36,17 52,27l3 2c15,10 29,22 42,35 14,14 25,28 35,43 10,16 18,32 24,49 12,34 -5,72 -40,85l-80 37c-33,15 -73,1 -89,-32l-2 -5c-2,-7 -6,-13 -10,-18 -4,-6 -10,-11 -16,-15 -6,-4 -12,-7 -18,-9l0 0c-8,-2 -17,-3 -27,-3 -11,0 -20,1 -29,3 -8,2 -16,5 -23,9 -7,4 -13,9 -19,16 -6,6 -11,13 -15,21 -4,8 -7,18 -10,28l0 2c-2,10 -3,22 -3,35 0,14 1,26 4,37 2,11 6,20 10,28 4,8 9,16 15,22 5,6 12,11 19,15 7,4 14,7 23,9l2 1c8,2 17,3 27,3 19,0 34,-4 45,-12 6,-5 12,-10 16,-16 4,-6 8,-12 10,-18 13,-34 51,-52 86,-39l6 3 84 39c32,15 46,50 35,82l0 0c-6,17 -14,33 -24,49 -10,15 -21,29 -35,43 -13,13 -28,26 -45,36l0 0c-16,10 -33,20 -52,28 -19,8 -40,14 -61,18 -21,4 -43,6 -65,6 -23,0 -45,-2 -67,-6 -22,-4 -43,-11 -63,-19 -40,-17 -74,-41 -104,-71 -11,-11 -21,-23 -30,-35l0 57c0,37 -30,66 -67,66l-350 0c-37,0 -67,-30 -67,-66zm422 -231c-8,11 -17,22 -27,33 -8,10 -19,21 -33,36l0 0 -15 16 70 0c8,0 16,1 23,4 -10,-28 -16,-58 -18,-88z"/>
    <path class="fil4" d="M31865 22477l0 -72 141 -147c28,-29 50,-52 65,-70 15,-17 26,-32 32,-45 6,-13 9,-25 9,-38 0,-22 -7,-39 -21,-51 -14,-13 -31,-19 -53,-19 -22,0 -42,6 -58,19 -16,13 -28,31 -36,56l-83 -26c6,-27 17,-51 34,-71 17,-20 38,-36 63,-47 25,-11 51,-16 79,-16 34,0 63,6 89,18 25,12 45,29 59,51 14,22 21,47 21,76 0,19 -3,37 -10,55 -7,18 -17,36 -31,55 -14,19 -32,40 -55,63l-122 128 226 0 0 80 -350 0zm681 8c-37,0 -72,-7 -103,-20 -31,-13 -59,-32 -83,-56 -24,-24 -42,-52 -55,-85 -13,-32 -20,-68 -20,-106 0,-38 6,-74 19,-107 13,-33 31,-61 55,-85 24,-24 51,-42 83,-56 32,-13 66,-20 104,-20 37,0 71,6 100,19 30,13 55,29 75,50 21,21 35,43 44,68l-85 40c-10,-26 -26,-47 -50,-64 -23,-17 -52,-25 -85,-25 -33,0 -61,8 -86,23 -25,15 -44,36 -58,63 -14,27 -21,58 -21,94 0,36 7,68 21,95 14,27 33,48 58,64 25,15 54,23 86,23 33,0 61,-8 85,-25 23,-17 40,-38 50,-64l85 40c-9,25 -24,47 -44,68 -21,21 -46,37 -75,50 -30,13 -63,19 -100,19z"/>
   </g>
  </g>
  <g>
   <g>
    <path class="fil6" d="M9996 16029l-339 339 -19 -19 339 -339 19 19zm339 0l-678 678 -19 -19 678 -678 19 19zm339 0l-1017 1017 -19 -19 1017 -1017 19 19zm339 0l-1356 1356 -19 -19 1356 -1356 19 19zm339 0l-1695 1695 -19 -19 1695 -1695 19 19zm339 0l-2034 2034 -19 -19 2034 -2034 19 19zm339 0l-2373 2373 -19 -19 2373 -2373 19 19zm339 0l-2712 2712 -19 -19 2712 -2712 19 19zm339 0l-3050 3050 -19 -19 3050 -3050 19 19zm339 0l-3222 3222 -19 -19 3222 -3222 19 19zm339 0l-3222 3222 -19 -19 3222 -3222 19 19zm339 0l-3222 3222 -19 -19 3222 -3222 19 19zm138 201l-3021 3021 -19 -19 3021 -3021 19 19zm0 339l-2682 2682 -19 -19 2682 -2682 19 19zm0 339l-2343 2343 -19 -19 2343 -2343 19 19zm0 339l-2004 2004 -19 -19 2004 -2004 19 19zm0 339l-1665 1665 -19 -19 1665 -1665 19 19zm0 339l-1327 1327 -19 -19 1327 -1327 19 19zm0 339l-988 988 -19 -19 988 -988 19 19zm0 339l-649 649 -19 -19 649 -649 19 19zm0 339l-310 310 -19 -19 310 -310 19 19z"/>
   </g>
   <g>
    <path class="fil6" d="M13853 16033l-4205 0 0 -27 4205 0 13 13 -13 13zm0 -27l13 0 0 13 -13 -13zm-13 3236l0 -3222 27 0 0 3222 -13 13 -13 -13zm27 0l0 13 -13 0 13 -13zm-4219 -13l4205 0 0 27 -4205 0 -13 -13 13 -13zm0 27l-13 0 0 -13 13 13zm13 -3236l0 3222 -27 0 0 -3222 13 -13 13 13zm-27 0l0 -13 13 0 -13 13z"/>
   </g>
   <g>
    <path class="fil3" d="M11485 17960c-18,0 -36,-2 -54,-5l0 0c-17,-3 -35,-9 -52,-16 -17,-7 -33,-16 -48,-26 -15,-10 -28,-22 -41,-35 -13,-14 -24,-29 -33,-45l0 0c-8,-16 -15,-33 -20,-52 -8,-33 11,-67 43,-78l83 -29 6 -2 -21 -43c-12,-26 -6,-55 13,-75l35 -40 -65 0c-37,0 -67,-30 -67,-66l0 -80c0,-37 30,-66 67,-66l320 0c37,0 67,30 67,66l0 74c0,18 -7,35 -19,47l-45 52c8,6 16,12 23,19 14,13 25,28 35,45l2 5c6,11 11,21 14,33l103 -296c10,-28 36,-45 63,-45l123 0c30,0 56,20 64,47l179 515c12,35 -7,72 -42,84 -7,2 -15,4 -22,4l-104 0c-31,0 -57,-20 -65,-48l-21 -63 -105 0 -22 66c-9,28 -35,45 -63,45l0 0 -103 0c-30,0 -56,-20 -64,-47 -12,9 -24,17 -37,25l0 0c-19,10 -39,18 -62,23l0 0c-21,5 -43,8 -67,8zm-38 -250l2 4c2,6 5,11 7,15l0 0c2,3 4,5 7,7l2 2c2,1 4,2 6,3 3,1 8,1 13,1 5,0 9,0 12,-1 3,-1 5,-1 6,-2l3 -2 2 -3c1,-1 1,-2 1,-4 1,-2 1,-5 1,-9 0,-4 0,-7 -1,-9l-1 -3c0,0 -2,-2 -2,-2 -1,-1 -2,-2 -3,-2 -1,-1 -4,-1 -7,-2l-1 0c-3,-1 -7,-1 -12,-1l-7 0 -8 1c-2,1 -7,1 -8,2 -4,2 -9,4 -14,5z"/>
    <path class="fil4" d="M11485 17893c-28,0 -55,-5 -81,-16 -25,-10 -47,-25 -65,-44 -18,-19 -30,-42 -37,-68l83 -29c8,24 21,42 39,54 17,12 38,18 61,18 19,0 35,-3 49,-10 14,-7 25,-17 33,-30 8,-13 12,-29 12,-47 0,-18 -4,-33 -12,-46 -8,-13 -19,-23 -33,-30 -14,-7 -31,-10 -50,-10 -9,0 -18,1 -28,3 -10,2 -18,5 -26,8l-22 -45 135 -153 -213 0 0 -80 320 0 0 74 -136 158 1 -35c31,0 59,7 82,20 23,13 42,31 55,53 13,23 20,49 20,80 0,33 -8,63 -25,90 -16,27 -39,48 -67,63 -28,15 -61,23 -97,23zm230 -8l180 -517 123 0 180 517 -104 0 -37 -111 -202 0 -38 111 -103 0zm168 -194l147 0 -87 -258 27 0 -87 258z"/>
   </g>
  </g>
  <g>
   <g>
    <path class="fil6" d="M14063 16029l-201 201 -19 -19 201 -201 19 19zm339 0l-540 540 -19 -19 540 -540 19 19zm339 0l-879 879 -19 -19 879 -879 19 19zm339 0l-1218 1218 -19 -19 1218 -1218 19 19zm339 0l-1557 1557 -19 -19 1557 -1557 19 19zm339 0l-1896 1896 -19 -19 1896 -1896 19 19zm339 0l-2235 2235 -19 -19 2235 -2235 19 19zm339 0l-2574 2574 -19 -19 2574 -2574 19 19zm339 0l-2913 2913 -19 -19 2913 -2913 19 19zm339 0l-3222 3222 -19 -19 3222 -3222 19 19zm339 0l-3222 3222 -19 -19 3222 -3222 19 19zm339 0l-3222 3222 -19 -19 3222 -3222 19 19zm276 63l-3159 3159 -19 -19 3159 -3159 19 19zm0 339l-2820 2820 -19 -19 2820 -2820 19 19zm0 339l-2481 2481 -19 -19 2481 -2481 19 19zm0 339l-2142 2142 -19 -19 2142 -2142 19 19zm0 339l-1803 1803 -19 -19 1803 -1803 19 19zm0 339l-1465 1465 -19 -19 1465 -1465 19 19zm0 339l-1126 1126 -19 -19 1126 -1126 19 19zm0 339l-787 787 -19 -19 787 -787 19 19zm0 339l-448 448 -19 -19 448 -448 19 19zm0 339l-109 109 -19 -19 109 -109 19 19z"/>
   </g>
   <g>
    <path class="fil6" d="M18058 16033l-4205 0 0 -27 4205 0 13 13 -13 13zm0 -27l13 0 0 13 -13 -13zm-13 3236l0 -3222 27 0 0 3222 -13 13 -13 -13zm27 0l0 13 -13 0 13 -13zm-4219 -13l4205 0 0 27 -4205 0 -13 -13 13 -13zm0 27l-13 0 0 -13 13 13zm13 -3236l0 3222 -27 0 0 -3222 13 -13 13 13zm-27 0l0 -13 13 0 -13 13z"/>
   </g>
   <g>
    <path class="fil3" d="M15708 17960c-18,0 -36,-2 -54,-5 -17,-3 -35,-9 -52,-16 -17,-7 -33,-16 -48,-26 -15,-10 -29,-22 -41,-35l0 0c-13,-14 -24,-29 -33,-45 -8,-16 -15,-33 -20,-52 -8,-33 11,-67 43,-78l83 -29 6 -2 -21 -43c-12,-26 -6,-55 13,-75l35 -40 -65 0c-37,0 -67,-30 -67,-66l0 -80c0,-37 30,-66 67,-66l320 0c22,0 41,10 53,26 12,-16 32,-26 53,-26l220 0c21,0 41,2 61,6 21,4 40,10 57,18 18,9 34,19 48,31 14,13 27,27 37,44 10,17 18,35 23,54 5,18 7,38 7,59 0,18 -2,35 -7,52 -3,11 -7,21 -13,32 3,4 6,8 9,12 8,13 15,26 20,40 4,12 7,25 9,38l0 3c2,13 3,25 3,37 0,34 -6,64 -18,92 -12,29 -31,54 -55,75l0 0c-23,20 -51,35 -83,45 -30,9 -62,14 -98,14l-220 0c-37,0 -67,-30 -67,-66l0 -21c-8,10 -16,19 -25,28l-4 4c-14,13 -30,24 -48,33l0 0c-19,10 -39,18 -62,23l0 0c-21,5 -43,8 -67,8zm-38 -250l2 4c2,6 5,11 7,15l0 0c2,3 4,5 7,7l2 2c2,1 4,2 6,3 3,1 8,1 13,1 5,0 9,0 12,-1 3,-1 5,-1 6,-2l3 -2 2 -3c1,-1 1,-2 1,-4l0 -1c0,-2 1,-5 1,-8 0,-4 0,-7 -1,-9l-1 -3c0,0 -2,-2 -2,-2 -1,-1 -2,-2 -3,-2 -1,-1 -4,-1 -7,-2l-1 0c-3,-1 -7,-1 -12,-1l-7 0 -8 1c-2,1 -7,1 -8,2 -4,2 -9,4 -14,5zm244 -211l-36 42c8,6 16,12 23,19l0 0c5,5 9,9 13,14l0 -76zm229 237l67 0c5,0 9,0 11,-1l2 -1c0,-1 1,-3 1,-6 0,-4 0,-6 -1,-7l-2 -1c-2,-1 -6,-1 -11,-1l-67 0 0 18z"/>
    <path class="fil4" d="M15708 17893c-28,0 -55,-5 -81,-16 -25,-10 -47,-25 -65,-44 -18,-19 -30,-42 -37,-68l83 -29c8,24 21,42 39,54 17,12 38,18 61,18 19,0 35,-3 49,-10 14,-7 25,-17 33,-30 8,-13 12,-29 12,-47 0,-18 -4,-33 -12,-46 -8,-13 -19,-23 -33,-30 -14,-7 -31,-10 -50,-10 -9,0 -18,1 -28,3 -10,2 -18,5 -26,8l-22 -45 135 -153 -213 0 0 -80 320 0 0 74 -136 158 1 -35c31,0 59,7 82,20 23,13 42,31 55,53 13,23 20,49 20,80 0,33 -8,63 -24,90 -16,27 -39,48 -67,63 -28,15 -61,23 -97,23zm273 -8l0 -517 220 0c35,0 64,6 89,18 24,12 43,28 57,50 13,22 20,48 20,78 0,24 -6,46 -19,66 -13,21 -33,38 -61,51l0 -44c26,10 46,22 61,36 15,14 25,30 31,48 6,18 9,36 9,56 0,50 -16,88 -49,116 -33,28 -78,42 -137,42l-220 0zm95 -83l134 0c25,0 44,-7 59,-20 15,-14 22,-32 22,-55 0,-23 -7,-41 -22,-55 -15,-14 -34,-21 -59,-21l-134 0 0 151zm0 -233l129 0c20,0 35,-6 47,-17 12,-11 18,-26 18,-44 0,-18 -6,-32 -18,-43 -12,-11 -27,-16 -47,-16l-129 0 0 120z"/>
   </g>
  </g>
  <g>
   <g>
    <path class="fil6" d="M18131 16029l-63 63 -19 -19 63 -63 19 19zm339 0l-402 402 -19 -19 402 -402 19 19zm339 0l-741 741 -19 -19 741 -741 19 19zm339 0l-1080 1080 -19 -19 1080 -1080 19 19zm339 0l-1419 1419 -19 -19 1419 -1419 19 19zm339 0l-1758 1758 -19 -19 1758 -1758 19 19zm339 0l-2097 2097 -19 -19 2097 -2097 19 19zm339 0l-2436 2436 -19 -19 2436 -2436 19 19zm339 0l-2775 2775 -19 -19 2775 -2775 19 19zm339 0l-3114 3114 -19 -19 3114 -3114 19 19zm339 0l-3222 3222 -19 -19 3222 -3222 19 19zm339 0l-3222 3222 -19 -19 3222 -3222 19 19zm339 0l-3222 3222 -19 -19 3222 -3222 19 19zm75 264l-2958 2958 -19 -19 2958 -2958 19 19zm0 339l-2619 2619 -19 -19 2619 -2619 19 19zm0 339l-2280 2280 -19 -19 2280 -2280 19 19zm0 339l-1941 1941 -19 -19 1941 -1941 19 19zm0 339l-1603 1602 -19 -19 1603 -1602 19 19zm0 339l-1264 1264 -19 -19 1264 -1264 19 19zm0 339l-925 925 -19 -19 925 -925 19 19zm0 339l-586 586 -19 -19 586 -586 19 19zm0 339l-247 247 -19 -19 247 -247 19 19z"/>
   </g>
   <g>
    <path class="fil6" d="M22264 16033l-4205 0 0 -27 4205 0 13 13 -13 13zm0 -27l13 0 0 13 -13 -13zm-13 3236l0 -3222 27 0 0 3222 -13 13 -13 -13zm27 0l0 13 -13 0 13 -13zm-4219 -13l4205 0 0 27 -4205 0 -13 -13 13 -13zm0 27l-13 0 0 -13 13 13zm13 -3236l0 3222 -27 0 0 -3222 13 -13 13 13zm-27 0l0 -13 13 0 -13 13z"/>
   </g>
   <g>
    <path class="fil3" d="M19883 17964c-18,0 -36,-2 -54,-5 -17,-3 -35,-9 -52,-16 -17,-7 -33,-16 -48,-26 -15,-10 -28,-22 -41,-35l0 0c-13,-14 -24,-29 -33,-45 -8,-16 -15,-33 -20,-52 -8,-33 11,-67 43,-78l83 -29 6 -2 -21 -43c-12,-26 -6,-55 13,-75l35 -40 -65 0c-37,0 -67,-30 -67,-66l0 -80c0,-37 30,-66 67,-66l320 0c37,0 67,30 67,66l0 74c0,6 -1,11 -2,16 4,-7 8,-14 12,-20 12,-19 25,-35 40,-50 14,-14 31,-28 49,-40 18,-12 37,-22 56,-30 20,-8 41,-14 63,-19 22,-4 44,-6 66,-6 46,0 88,8 127,24 19,8 36,17 52,27l3 2c15,10 29,22 42,35 14,14 25,28 35,43 10,16 18,32 24,49 12,34 -5,72 -40,85l-80 37c-33,15 -73,1 -89,-32l-2 -5c-2,-7 -6,-13 -10,-18 -4,-6 -10,-11 -16,-16 -6,-4 -12,-7 -18,-9l0 0c-8,-2 -17,-3 -27,-3 -11,0 -20,1 -29,3 -8,2 -16,5 -23,9 -7,4 -13,9 -19,16 -6,6 -11,13 -15,21l0 0c-4,8 -7,18 -10,28l0 2c-2,10 -3,22 -3,35 0,14 1,26 4,37 2,11 6,20 10,28 4,9 9,16 15,22 5,6 12,11 19,15 7,4 14,7 23,9l2 1c8,2 17,3 27,3 19,0 34,-4 45,-12 6,-5 12,-10 16,-16 4,-6 8,-12 10,-18 13,-34 51,-52 86,-39l6 3 84 39c32,15 46,50 35,82l0 0c-6,17 -14,33 -24,49 -10,15 -22,29 -35,43 -13,13 -28,26 -45,36l0 0c-16,10 -33,20 -52,28 -19,8 -40,14 -61,18 -21,4 -43,6 -65,6 -23,0 -45,-2 -67,-6 -22,-4 -43,-11 -63,-19 -19,-8 -38,-18 -56,-31 -17,-12 -33,-25 -48,-40 -15,-15 -28,-32 -40,-50l-5 -8c-5,12 -11,25 -18,36 -11,19 -25,35 -40,50 -15,14 -33,27 -52,37l0 0c-19,10 -39,18 -62,23l0 0c-21,5 -43,8 -67,8zm-38 -250l2 4c2,6 5,11 7,15l0 0c2,3 4,5 7,7l2 2c2,1 4,2 6,3 3,1 8,1 13,1 5,0 9,0 12,-1 3,-1 5,-1 6,-2l3 -2 2 -3c1,-1 1,-2 1,-4l0 -1c0,-2 1,-5 1,-8 0,-4 0,-7 -1,-9l-1 -3c0,0 -2,-2 -2,-2 -1,-1 -2,-2 -3,-2 -1,-1 -4,-1 -7,-2l-1 0c-3,-1 -7,-1 -12,-1l-7 0c-4,1 -13,2 -16,4 -4,2 -9,4 -14,5zm258 -227c-2,2 -4,4 -5,6l-45 52c8,6 16,12 23,19l0 0 3 3c4,-23 10,-46 19,-68l5 -13z"/>
    <path class="fil4" d="M19883 17897c-28,0 -55,-5 -81,-16 -25,-10 -47,-25 -65,-44 -18,-19 -30,-42 -37,-68l83 -29c8,24 21,42 39,54 17,12 38,18 61,18 19,0 35,-3 49,-10 14,-7 25,-17 33,-30 8,-13 12,-29 12,-47 0,-18 -4,-33 -12,-46 -8,-13 -19,-23 -33,-30 -14,-7 -31,-10 -50,-10 -9,0 -18,1 -28,3 -10,2 -18,5 -26,8l-22 -45 135 -153 -213 0 0 -80 320 0 0 74 -136 158 1 -35c31,0 59,7 82,20 23,13 42,31 55,53 13,23 20,49 20,80 0,33 -8,63 -24,90 -16,27 -39,48 -67,63 -28,15 -61,23 -97,23zm518 0c-37,0 -72,-7 -103,-20 -31,-13 -59,-32 -83,-56 -24,-24 -42,-52 -55,-85 -13,-32 -20,-68 -20,-106 0,-38 6,-74 19,-107 13,-33 31,-61 55,-85 24,-24 51,-42 83,-56 32,-13 66,-20 104,-20 37,0 71,6 100,19 30,13 55,29 75,50 21,21 35,43 44,68l-85 40c-10,-26 -26,-47 -50,-64 -23,-17 -52,-25 -85,-25 -33,0 -61,8 -86,23 -25,15 -44,36 -58,63 -14,27 -21,58 -21,94 0,36 7,68 21,95 14,27 33,48 58,64 25,15 54,23 86,23 33,0 61,-8 85,-25 23,-17 40,-38 50,-64l85 40c-9,25 -24,47 -44,68 -21,21 -46,37 -75,50 -30,13 -63,19 -100,19z"/>
   </g>
  </g>
  <g>
   <g>
    <path class="fil6" d="M26478 19187l-63 63 -19 -19 63 -63 19 19zm0 -339l-402 402 -19 -19 402 -402 19 19zm0 -339l-741 741 -19 -19 741 -741 19 19zm-3959 -2481l-246 246 -19 -19 246 -246 19 19zm339 0l-585 585 -19 -19 585 -585 19 19zm339 0l-924 924 -19 -19 924 -924 19 19zm339 0l-1263 1263 -19 -19 1263 -1263 19 19zm339 0l-1602 1602 -19 -19 1602 -1602 19 19zm339 0l-1941 1941 -19 -19 1941 -1941 19 19zm339 0l-2280 2280 -19 -19 2280 -2280 19 19zm339 0l-2619 2619 -19 -19 2619 -2619 19 19zm339 0l-2958 2958 -19 -19 2958 -2958 19 19zm339 0l-3222 3222 -19 -19 3222 -3222 19 19zm339 0l-3222 3222 -19 -19 3222 -3222 19 19zm339 0l-3222 3222 -19 -19 3222 -3222 19 19zm231 108l-3114 3114 -19 -19 3114 -3114 19 19zm0 339l-2775 2775 -19 -19 2775 -2775 19 19zm0 339l-2436 2436 -19 -19 2436 -2436 19 19zm0 339l-2097 2097 -19 -19 2097 -2097 19 19zm0 339l-1758 1758 -19 -19 1758 -1758 19 19zm0 339l-1419 1419 -19 -19 1419 -1419 19 19zm0 339l-1080 1080 -19 -19 1080 -1080 19 19z"/>
   </g>
   <g>
    <path class="fil6" d="M26469 16033l-4205 0 0 -27 4205 0 13 13 -13 13zm0 -27l13 0 0 13 -13 -13zm-13 3236l0 -3222 27 0 0 3222 -13 13 -13 -13zm27 0l0 13 -13 0 13 -13zm-4219 -13l4205 0 0 27 -4205 0 -13 -13 13 -13zm0 27l-13 0 0 -13 13 13zm13 -3236l0 3222 -27 0 0 -3222 13 -13 13 13zm-27 0l0 -13 13 0 -13 13z"/>
   </g>
   <g>
    <path class="fil3" d="M24100 17960c-18,0 -36,-2 -54,-5 -17,-3 -35,-9 -52,-16 -17,-7 -33,-16 -48,-26 -15,-10 -28,-22 -41,-35l0 0c-13,-14 -24,-29 -33,-45 -8,-16 -15,-33 -20,-52 -8,-33 11,-67 43,-78l83 -29 6 -2 -21 -43c-12,-26 -6,-55 13,-75l35 -40 -65 0c-37,0 -67,-30 -67,-66l0 -80c0,-37 30,-66 67,-66l320 0c22,0 41,10 53,26 12,-16 32,-26 53,-26l170 0c32,0 63,3 92,10 30,7 58,17 84,31 26,14 49,31 69,50 20,20 38,42 52,66 14,24 25,51 32,80 7,28 10,57 10,88 0,30 -4,59 -10,87 -7,28 -18,55 -32,80 -14,25 -32,47 -52,67 -20,19 -43,36 -69,50 -26,14 -54,24 -84,31 -29,7 -60,10 -92,10l-170 0c-37,0 -67,-30 -67,-66l0 -21c-8,10 -16,19 -25,28 -15,14 -33,27 -52,37l0 0c-19,10 -40,18 -62,23l0 0c-21,5 -43,8 -67,8zm-38 -250l2 4c2,6 5,11 7,15l0 0c2,3 4,5 7,7l2 2c2,1 4,2 6,3 3,1 8,1 13,1 5,0 9,0 12,-1 2,-1 5,-1 6,-2 1,-1 2,-1 3,-2l2 -3c1,-1 1,-2 1,-4 1,-2 1,-5 1,-9 0,-4 0,-7 -1,-9l-1 -3c0,0 -2,-2 -2,-2 -1,-1 -2,-2 -3,-2 -1,-1 -4,-1 -7,-2l-1 0c-3,-1 -7,-1 -12,-1l-7 0c-4,1 -13,2 -16,4 -4,2 -9,4 -14,5zm243 -211l-36 42c8,6 16,12 23,19l0 0c5,5 9,9 13,14l0 -76zm229 237l10 0c13,0 25,-1 34,-3 9,-2 17,-5 25,-10 7,-4 14,-9 20,-15 6,-6 11,-13 15,-20 4,-8 7,-16 10,-26 2,-10 4,-22 4,-35 0,-25 -4,-45 -13,-61 -4,-8 -9,-14 -15,-20 -6,-6 -12,-10 -20,-15l-2 -1c-7,-3 -14,-6 -22,-8 -10,-2 -22,-4 -34,-4l-10 0 0 218z"/>
    <path class="fil4" d="M24100 17893c-28,0 -55,-5 -81,-16 -25,-10 -47,-25 -65,-44 -18,-19 -30,-42 -37,-68l83 -29c8,24 21,42 39,54 17,12 38,18 61,18 19,0 35,-3 49,-10 14,-7 25,-17 33,-30 8,-13 12,-29 12,-47 0,-18 -4,-33 -12,-46 -8,-13 -19,-23 -33,-30 -14,-7 -31,-10 -50,-10 -9,0 -18,1 -28,3 -10,2 -18,5 -26,8l-22 -45 135 -153 -213 0 0 -80 320 0 0 74 -136 158 1 -35c31,0 59,7 82,20 23,13 42,31 55,53 13,23 20,49 20,80 0,33 -8,63 -24,90 -16,27 -39,48 -67,63 -28,15 -61,23 -97,23zm273 -8l0 -517 170 0c55,0 103,11 144,33 41,22 72,52 95,91 22,39 34,83 34,134 0,50 -11,95 -34,134 -22,39 -54,70 -95,92 -41,22 -89,33 -144,33l-170 0zm95 -83l77 0c35,0 66,-7 92,-22 26,-15 46,-35 61,-61 14,-26 22,-57 22,-93 0,-36 -7,-67 -22,-93 -14,-26 -35,-46 -61,-60 -26,-14 -57,-22 -92,-22l-77 0 0 351z"/>
   </g>
  </g>
  <g>
   <g>
    <path class="fil6" d="M29637 16029l-3159 3159 -19 -19 3159 -3159 19 19zm339 0l-3222 3222 -19 -19 3222 -3222 19 19zm339 0l-3222 3222 -19 -19 3222 -3222 19 19zm339 0l-3222 3222 -19 -19 3222 -3222 19 19zm30 309l-2913 2913 -19 -19 2913 -2913 19 19zm0 339l-2574 2574 -19 -19 2574 -2574 19 19zm0 339l-2235 2235 -19 -19 2235 -2235 19 19zm0 339l-1896 1896 -19 -19 1896 -1896 19 19zm0 339l-1557 1557 -19 -19 1557 -1557 19 19zm0 339l-1218 1218 -19 -19 1218 -1218 19 19zm0 339l-879 879 -19 -19 879 -879 19 19zm0 339l-540 540 -19 -19 540 -540 19 19zm0 339l-201 201 -19 -19 201 -201 19 19zm-1385 -3021l-2820 2820 -19 -19 2820 -2820 19 19zm-339 0l-2481 2481 -19 -19 2481 -2481 19 19zm-2373 0l-108 108 -19 -19 108 -108 19 19zm339 0l-447 447 -19 -19 447 -447 19 19zm339 0l-786 786 -19 -19 786 -786 19 19zm339 0l-1125 1125 -19 -19 1125 -1125 19 19zm339 0l-1464 1464 -19 -19 1464 -1464 19 19zm339 0l-1803 1803 -19 -19 1803 -1803 19 19zm339 0l-2142 2142 -19 -19 2142 -2142 19 19z"/>
   </g>
   <g>
    <path class="fil6" d="M30674 16033l-4205 0 0 -27 4205 0 13 13 -13 13zm0 -27l13 0 0 13 -13 -13zm-13 3236l0 -3222 27 0 0 3222 -13 13 -13 -13zm27 0l0 13 -13 0 13 -13zm-4219 -13l4205 0 0 27 -4205 0 -13 -13 13 -13zm0 27l-13 0 0 -13 13 13zm13 -3236l0 3222 -27 0 0 -3222 13 -13 13 13zm-27 0l0 -13 13 0 -13 13z"/>
   </g>
   <g>
    <path class="fil3" d="M28068 17893l0 -72c0,-20 9,-37 22,-49l138 -143c27,-29 48,-51 63,-67 6,-7 11,-13 15,-19 4,-5 6,-9 7,-11 1,-1 1,-3 2,-6 1,-2 0,-5 0,-7l-1 0 -5 0c-7,0 -13,2 -17,5 -2,2 -4,4 -6,7 -3,4 -5,9 -7,16 -11,35 -48,55 -83,45l-84 -26c-35,-11 -55,-47 -45,-82 4,-18 10,-34 17,-49 8,-17 18,-33 31,-47 12,-14 25,-26 40,-37 15,-11 30,-20 47,-27 17,-7 34,-13 52,-17 18,-4 36,-6 54,-6 43,0 82,8 117,25 18,9 35,19 49,31l0 0c15,12 27,27 38,44l2 3c10,16 17,32 22,50 5,19 8,39 8,59 0,13 -1,26 -4,40 -2,13 -6,25 -11,39l0 0c-4,11 -10,23 -18,36l0 0c-6,11 -14,23 -23,35l-2 2c-8,10 -16,21 -25,31l-1 2c-10,11 -20,22 -31,34l-15 16 70 0c8,0 15,1 22,4l138 -396c10,-28 36,-45 63,-45l123 0c30,0 56,20 64,47l179 515c12,35 -7,72 -42,84 -7,2 -15,4 -22,4l-104 0c-31,0 -57,-20 -65,-48l-21 -63 -105 0 -22 66c-9,28 -35,45 -63,45l0 0 -103 0c-8,0 -15,-1 -22,-4 -7,2 -14,4 -22,4l-350 0c-37,0 -67,-30 -67,-66z"/>
    <path class="fil4" d="M28135 17893l0 -72 141 -147c28,-29 50,-52 65,-70 15,-17 26,-32 32,-45 6,-13 9,-25 9,-38 0,-22 -7,-39 -21,-51 -14,-13 -31,-19 -53,-19 -22,0 -42,6 -58,19 -16,13 -28,31 -36,56l-83 -26c6,-27 17,-51 34,-71 17,-20 38,-36 63,-47 25,-11 51,-16 79,-16 34,0 63,6 89,18 25,12 45,29 59,51 14,22 21,47 21,76 0,19 -3,37 -10,55 -7,18 -17,36 -31,55 -14,19 -32,40 -55,63l-122 128 226 0 0 80 -350 0zm393 0l180 -517 123 0 180 517 -104 0 -37 -111 -202 0 -38 111 -103 0zm168 -194l147 0 -87 -258 27 0 -87 258z"/>
   </g>
  </g>
  <g>
   <g>
    <path class="fil6" d="M26772 25334l-294 294 -19 -19 294 -294 19 19zm339 0l-633 633 -19 -19 633 -633 19 19zm339 0l-972 972 -19 -19 972 -972 19 19zm339 0l-1311 1311 -19 -19 1311 -1311 19 19zm339 0l-1649 1649 -19 -19 1649 -1649 19 19zm339 0l-1988 1988 -19 -19 1988 -1988 19 19zm339 0l-2327 2327 -19 -19 2327 -2327 19 19zm339 0l-2666 2666 -19 -19 2666 -2666 19 19zm339 0l-3005 3005 -19 -19 3005 -3005 19 19zm339 0l-3222 3222 -19 -19 3222 -3222 19 19zm339 0l-3222 3222 -19 -19 3222 -3222 19 19zm339 0l-3222 3222 -19 -19 3222 -3222 19 19zm183 156l-3067 3067 -19 -19 3067 -3067 19 19zm0 339l-2728 2728 -19 -19 2728 -2728 19 19zm0 339l-2389 2389 -19 -19 2389 -2389 19 19zm0 339l-2050 2050 -19 -19 2050 -2050 19 19zm0 339l-1711 1711 -19 -19 1711 -1711 19 19zm0 339l-1372 1372 -19 -19 1372 -1372 19 19zm0 339l-1033 1033 -19 -19 1033 -1033 19 19zm0 339l-694 694 -19 -19 694 -694 19 19zm0 339l-355 355 -19 -19 355 -355 19 19zm0 339l-16 16 -19 -19 16 -16 19 19z"/>
   </g>
   <g>
    <path class="fil6" d="M30674 25337l-4205 0 0 -27 4205 0 13 13 -13 13zm0 -27l13 0 0 13 -13 -13zm-13 3236l0 -3222 27 0 0 3222 -13 13 -13 -13zm27 0l0 13 -13 0 13 -13zm-4219 -13l4205 0 0 27 -4205 0 -13 -13 13 -13zm0 27l-13 0 0 -13 13 13zm13 -3236l0 3222 -27 0 0 -3222 13 -13 13 13zm-27 0l0 -13 13 0 -13 13z"/>
   </g>
   <g>
    <path class="fil3" d="M28067 27198l0 -72c0,-20 9,-37 22,-49l138 -143c27,-29 48,-51 63,-67 6,-7 11,-13 15,-19 4,-5 6,-9 7,-11 1,-1 1,-3 2,-6 1,-2 0,-5 0,-7l-1 0 -5 0c-7,0 -13,2 -17,5 -2,2 -4,4 -6,7 -3,4 -5,9 -7,16 -11,35 -48,55 -83,45l-84 -26c-35,-11 -55,-47 -45,-82 4,-18 10,-34 17,-49 8,-17 18,-33 31,-47 12,-14 25,-26 40,-37 15,-11 30,-20 47,-27 17,-7 34,-13 52,-17 18,-4 36,-6 54,-6 43,0 82,8 117,25 18,9 35,19 49,31l0 0c11,9 20,19 29,31l0 -12c0,-37 30,-66 67,-66l170 0c32,0 63,3 92,10 30,7 58,17 84,31 26,14 49,31 69,50 20,20 38,42 52,66 14,24 25,51 32,80 7,28 10,57 10,88 0,30 -4,59 -10,87 -7,28 -18,55 -32,80 -14,25 -32,47 -52,67 -20,19 -43,36 -69,50 -26,14 -54,24 -84,31 -29,7 -60,10 -92,10l-170 0c-16,0 -31,-6 -43,-15 -12,10 -27,15 -43,15l-350 0c-37,0 -67,-30 -67,-66zm436 -251c-4,7 -9,13 -14,20l-2 2c-8,10 -16,21 -25,31l-1 2c-10,11 -20,22 -31,34l-15 16 70 0c7,0 13,1 19,3l0 -108zm229 101l10 0c13,0 25,-1 34,-3 9,-2 17,-5 25,-10 7,-4 14,-9 20,-15 6,-6 11,-13 15,-20 4,-8 7,-16 10,-26 2,-10 4,-22 4,-35 0,-25 -4,-45 -13,-61 -4,-8 -9,-14 -15,-20 -6,-6 -12,-11 -20,-15 -7,-4 -16,-7 -25,-9 -10,-2 -22,-4 -34,-4l-10 0 0 218z"/>
    <path class="fil4" d="M28134 27198l0 -72 141 -147c28,-29 50,-52 65,-70 15,-17 26,-32 32,-45 6,-13 9,-25 9,-38 0,-22 -7,-39 -21,-51 -14,-13 -31,-19 -53,-19 -22,0 -42,6 -58,19 -16,13 -28,31 -36,56l-83 -26c6,-27 17,-51 34,-71 17,-20 38,-36 63,-47 25,-11 51,-16 79,-16 34,0 63,6 89,18 25,12 45,29 59,51 14,22 21,47 21,76 0,19 -3,37 -10,55 -7,18 -17,36 -31,55 -14,19 -32,40 -55,63l-122 128 226 0 0 80 -350 0zm436 0l0 -517 170 0c55,0 103,11 144,33 41,22 72,52 95,91 22,39 34,83 34,134 0,50 -11,95 -34,134 -22,39 -54,70 -95,92 -41,22 -89,33 -144,33l-170 0zm95 -83l77 0c35,0 66,-7 92,-22 26,-15 46,-35 61,-61 14,-26 22,-57 22,-93 0,-36 -7,-67 -22,-93 -14,-26 -35,-46 -61,-60 -26,-14 -57,-22 -92,-22l-77 0 0 351z"/>
   </g>
  </g>
  <g>
   <g>
    <path class="fil6" d="M9808 25334l-151 151 -19 -19 151 -151 19 19zm339 0l-490 490 -19 -19 490 -490 19 19zm339 0l-829 829 -19 -19 829 -829 19 19zm339 0l-1168 1168 -19 -19 1168 -1168 19 19zm339 0l-1507 1507 -19 -19 1507 -1507 19 19zm339 0l-1846 1846 -19 -19 1846 -1846 19 19zm339 0l-2185 2185 -19 -19 2185 -2185 19 19zm339 0l-2524 2524 -19 -19 2524 -2524 19 19zm339 0l-2863 2863 -19 -19 2863 -2863 19 19zm339 0l-3202 3202 -19 -19 3202 -3202 19 19zm339 0l-3222 3222 -19 -19 3222 -3222 19 19zm339 0l-3222 3222 -19 -19 3222 -3222 19 19zm326 13l-3209 3209 -19 -19 3209 -3209 19 19zm0 339l-2870 2870 -19 -19 2870 -2870 19 19zm0 339l-2531 2531 -19 -19 2531 -2531 19 19zm0 339l-2192 2192 -19 -19 2192 -2192 19 19zm0 339l-1853 1853 -19 -19 1853 -1853 19 19zm0 339l-1514 1514 -19 -19 1514 -1514 19 19zm0 339l-1176 1176 -19 -19 1176 -1176 19 19zm0 339l-837 837 -19 -19 837 -837 19 19zm0 339l-498 498 -19 -19 498 -498 19 19zm0 339l-159 159 -19 -19 159 -159 19 19z"/>
   </g>
   <g>
    <path class="fil6" d="M13853 25337l-4205 0 0 -27 4205 0 13 13 -13 13zm0 -27l13 0 0 13 -13 -13zm-13 3236l0 -3222 27 0 0 3222 -13 13 -13 -13zm27 0l0 13 -13 0 13 -13zm-4219 -13l4205 0 0 27 -4205 0 -13 -13 13 -13zm0 27l-13 0 0 -13 13 13zm13 -3236l0 3222 -27 0 0 -3222 13 -13 13 13zm-27 0l0 -13 13 0 -13 13z"/>
   </g>
   <g>
    <path class="fil3" d="M11408 27194l0 -370 -34 0c-37,0 -67,-30 -67,-66l0 -81c0,-37 30,-66 67,-66l196 0c37,0 67,30 67,66l0 331 123 -353c10,-28 36,-45 63,-45l123 0c30,0 56,20 64,47l179 515c12,35 -7,72 -42,84 -7,2 -15,4 -22,4l-104 0c-31,0 -57,-20 -65,-48l-21 -63 -105 0 -22 66c-9,28 -35,45 -63,45l0 0 -103 0c-14,0 -26,-4 -37,-11 -11,7 -23,11 -37,11l-95 0c-37,0 -67,-30 -67,-66z"/>
    <path class="fil4" d="M11475 27194l0 -437 -101 0 0 -81 196 0 0 517 -95 0zm169 0l180 -517 123 0 180 517 -104 0 -37 -111 -202 0 -38 111 -103 0zm168 -194l147 0 -87 -258 27 0 -87 258z"/>
   </g>
  </g>
  <g>
   <g>
    <path class="fil6" d="M18068 27598l-958 958 -19 -19 958 -958 19 19zm0 339l-619 619 -19 -19 619 -619 19 19zm0 339l-280 280 -19 -19 280 -280 19 19zm0 -1017l-1297 1297 -19 -19 1297 -1297 19 19zm0 -339l-1636 1636 -19 -19 1636 -1636 19 19zm-4176 -1586l-30 30 -19 -19 30 -30 19 19zm339 0l-369 369 -19 -19 369 -369 19 19zm339 0l-708 708 -19 -19 708 -708 19 19zm339 0l-1047 1047 -19 -19 1047 -1047 19 19zm339 0l-1385 1385 -19 -19 1385 -1385 19 19zm339 0l-1724 1724 -19 -19 1724 -1724 19 19zm339 0l-2063 2063 -19 -19 2063 -2063 19 19zm339 0l-2402 2402 -19 -19 2402 -2402 19 19zm339 0l-2741 2741 -19 -19 2741 -2741 19 19zm339 0l-3080 3080 -19 -19 3080 -3080 19 19zm339 0l-3222 3222 -19 -19 3222 -3222 19 19zm339 0l-3222 3222 -19 -19 3222 -3222 19 19zm339 0l-3222 3222 -19 -19 3222 -3222 19 19zm108 231l-2992 2992 -19 -19 2992 -2992 19 19zm0 339l-2653 2653 -19 -19 2653 -2653 19 19zm0 339l-2314 2314 -19 -19 2314 -2314 19 19zm0 339l-1975 1975 -19 -19 1975 -1975 19 19z"/>
   </g>
   <g>
    <path class="fil6" d="M18058 25337l-4205 0 0 -27 4205 0 13 13 -13 13zm0 -27l13 0 0 13 -13 -13zm-13 3236l0 -3222 27 0 0 3222 -13 13 -13 -13zm27 0l0 13 -13 0 13 -13zm-4219 -13l4205 0 0 27 -4205 0 -13 -13 13 -13zm0 27l-13 0 0 -13 13 13zm13 -3236l0 3222 -27 0 0 -3222 13 -13 13 13zm-27 0l0 -13 13 0 -13 13z"/>
   </g>
   <g>
    <path class="fil3" d="M15630 27194l0 -370 -34 0c-37,0 -67,-30 -67,-66l0 -81c0,-37 30,-66 67,-66l196 0c25,0 46,13 58,33 12,-20 33,-33 58,-33l220 0c21,0 41,2 61,6 21,4 40,10 57,18 18,9 34,19 48,31 14,13 27,27 37,44 10,17 18,35 23,54 5,18 7,38 7,59 0,30 -7,58 -20,84 3,4 6,8 9,12 8,13 15,26 20,40 4,12 7,25 9,38l0 3c2,13 3,25 3,37 0,34 -6,64 -18,92 -12,29 -31,54 -55,75l0 0c-23,20 -51,35 -83,45 -30,9 -62,14 -98,14l-220 0c-25,0 -46,-13 -58,-33 -12,20 -33,33 -58,33l-95 0c-37,0 -67,-30 -67,-66zm441 -150l67 0c5,0 9,0 11,-1l2 -1c0,0 0,0 0,0l0 0c0,-1 0,-3 0,-6 0,-3 0,-5 -1,-6l-2 -2c-2,-1 -6,-1 -11,-1l-67 0 0 18z"/>
    <path class="fil4" d="M15697 27194l0 -437 -101 0 0 -81 196 0 0 517 -95 0zm211 0l0 -517 220 0c35,0 64,6 89,18 24,12 43,28 57,50 13,22 20,48 20,78 0,24 -6,46 -19,66 -13,21 -33,38 -61,51l0 -44c26,10 46,22 61,36 15,14 25,30 31,48 6,18 9,36 9,56 0,50 -16,88 -49,116 -33,28 -78,42 -137,42l-220 0zm95 -83l134 0c25,0 44,-7 59,-20 15,-14 22,-32 22,-55 0,-23 -7,-41 -22,-55 -15,-14 -34,-21 -59,-21l-134 0 0 151zm0 -233l129 0c20,0 35,-6 47,-17 12,-11 18,-26 18,-44 0,-18 -6,-32 -18,-43 -12,-11 -27,-16 -47,-16l-129 0 0 120z"/>
   </g>
  </g>
  <g>
   <g>
    <path class="fil6" d="M20332 25334l-2264 2264 -19 -19 2264 -2264 19 19zm339 0l-2603 2603 -19 -19 2603 -2603 19 19zm339 0l-2942 2942 -19 -19 2942 -2942 19 19zm339 0l-3222 3222 -19 -19 3222 -3222 19 19zm339 0l-3222 3222 -19 -19 3222 -3222 19 19zm339 0l-3222 3222 -19 -19 3222 -3222 19 19zm246 93l-3130 3130 -19 -19 3130 -3130 19 19zm0 339l-2791 2791 -19 -19 2791 -2791 19 19zm0 339l-2452 2452 -19 -19 2452 -2452 19 19zm0 339l-2113 2113 -19 -19 2113 -2113 19 19zm0 339l-1774 1774 -19 -19 1774 -1774 19 19zm0 339l-1435 1435 -19 -19 1435 -1435 19 19zm0 339l-1096 1096 -19 -19 1096 -1096 19 19zm0 339l-757 757 -19 -19 757 -757 19 19zm0 339l-418 418 -19 -19 418 -418 19 19zm0 339l-79 79 -19 -19 79 -79 19 19zm-2280 -3143l-1925 1925 -19 -19 1925 -1925 19 19zm-339 0l-1586 1586 -19 -19 1586 -1586 19 19zm-1356 0l-231 231 -19 -19 231 -231 19 19zm339 0l-570 570 -19 -19 570 -570 19 19zm339 0l-909 909 -19 -19 909 -909 19 19zm339 0l-1248 1248 -19 -19 1248 -1248 19 19z"/>
   </g>
   <g>
    <path class="fil6" d="M22264 25337l-4205 0 0 -27 4205 0 13 13 -13 13zm0 -27l13 0 0 13 -13 -13zm-13 3236l0 -3222 27 0 0 3222 -13 13 -13 -13zm27 0l0 13 -13 0 13 -13zm-4219 -13l4205 0 0 27 -4205 0 -13 -13 13 -13zm0 27l-13 0 0 -13 13 13zm13 -3236l0 3222 -27 0 0 -3222 13 -13 13 13zm-27 0l0 -13 13 0 -13 13z"/>
   </g>
   <g>
    <path class="fil3" d="M19806 27194l0 -370 -34 0c-37,0 -67,-30 -67,-66l0 -81c0,-37 30,-66 67,-66l196 0c37,0 67,30 67,66l0 106c6,-12 12,-24 20,-35 12,-19 25,-35 40,-50 15,-15 31,-28 49,-40l5 -3c16,-10 33,-19 51,-27l0 0c20,-8 41,-14 63,-19 22,-4 44,-6 66,-6 46,0 88,8 127,24 19,8 36,17 52,27l3 2c15,10 29,22 42,35 14,14 25,28 35,43 10,16 18,32 24,49 12,34 -5,72 -40,85l-80 37c-33,15 -73,1 -89,-32l-2 -5c-2,-7 -6,-13 -10,-18 -4,-6 -10,-11 -16,-16 -6,-4 -12,-7 -18,-9l0 0c-8,-2 -17,-3 -27,-3 -11,0 -20,1 -29,3 -8,2 -16,5 -23,9 -7,4 -13,9 -19,16 -6,6 -11,13 -15,21l0 0c-4,8 -7,18 -10,28 -2,11 -4,23 -4,37 0,14 1,26 4,37 2,11 6,20 10,28 4,9 9,16 15,22 5,6 12,11 19,15 7,4 14,7 23,9l2 1c8,2 17,3 27,3 19,0 34,-4 45,-12 6,-5 12,-10 16,-16 4,-6 8,-12 10,-18 13,-34 51,-52 86,-39l6 3 84 39c32,15 46,50 35,82l0 0c-6,17 -14,33 -24,49 -10,15 -22,29 -35,43 -13,13 -28,26 -45,36l0 0c-16,10 -33,20 -52,28 -19,8 -40,14 -61,18 -21,4 -43,6 -65,6 -23,0 -45,-2 -67,-6 -22,-4 -43,-11 -63,-19 -19,-8 -38,-18 -56,-31 -17,-12 -33,-25 -48,-40 -15,-15 -28,-32 -40,-50 -7,-11 -14,-24 -20,-37l0 108c0,37 -30,66 -67,66l-95 0c-37,0 -67,-30 -67,-66z"/>
    <path class="fil4" d="M19873 27194l0 -437 -101 0 0 -81 196 0 0 517 -95 0zm456 8c-37,0 -72,-7 -103,-20 -31,-13 -59,-32 -83,-56 -24,-24 -42,-52 -55,-85 -13,-32 -20,-68 -20,-106 0,-38 6,-74 19,-107 13,-33 31,-61 55,-85 24,-24 51,-42 83,-56 32,-13 66,-20 104,-20 37,0 71,6 100,19 30,13 55,29 75,50 21,21 35,43 44,68l-85 40c-10,-26 -26,-47 -50,-64 -23,-17 -52,-25 -85,-25 -33,0 -61,8 -86,23 -25,15 -44,36 -58,63 -14,27 -21,58 -21,94 0,36 7,68 21,95 14,27 33,48 58,64 25,15 54,23 86,23 33,0 61,-8 85,-25 23,-17 40,-38 50,-64l85 40c-9,25 -24,47 -44,68 -21,21 -46,37 -75,50 -30,13 -63,19 -100,19z"/>
   </g>
  </g>
  <g>
   <g>
    <path class="fil6" d="M22366 25334l-93 93 -19 -19 93 -93 19 19zm339 0l-432 432 -19 -19 432 -432 19 19zm339 0l-771 771 -19 -19 771 -771 19 19zm339 0l-1110 1110 -19 -19 1110 -1110 19 19zm339 0l-1448 1448 -19 -19 1448 -1448 19 19zm339 0l-1787 1787 -19 -19 1787 -1787 19 19zm339 0l-2126 2126 -19 -19 2126 -2126 19 19zm339 0l-2465 2465 -19 -19 2465 -2465 19 19zm339 0l-2804 2804 -19 -19 2804 -2804 19 19zm339 0l-3143 3143 -19 -19 3143 -3143 19 19zm339 0l-3222 3222 -19 -19 3222 -3222 19 19zm339 0l-3222 3222 -19 -19 3222 -3222 19 19zm339 0l-3222 3222 -19 -19 3222 -3222 19 19zm45 294l-2929 2929 -19 -19 2929 -2929 19 19zm0 339l-2590 2590 -19 -19 2590 -2590 19 19zm0 339l-2251 2251 -19 -19 2251 -2251 19 19zm0 339l-1912 1912 -19 -19 1912 -1912 19 19zm0 339l-1573 1573 -19 -19 1573 -1573 19 19zm0 339l-1234 1234 -19 -19 1234 -1234 19 19zm0 339l-895 895 -19 -19 895 -895 19 19zm0 339l-556 556 -19 -19 556 -556 19 19zm0 339l-217 217 -19 -19 217 -217 19 19z"/>
   </g>
   <g>
    <path class="fil6" d="M26469 25337l-4205 0 0 -27 4205 0 13 13 -13 13zm0 -27l13 0 0 13 -13 -13zm-13 3236l0 -3222 27 0 0 3222 -13 13 -13 -13zm27 0l0 13 -13 0 13 -13zm-4219 -13l4205 0 0 27 -4205 0 -13 -13 13 -13zm0 27l-13 0 0 -13 13 13zm13 -3236l0 3222 -27 0 0 -3222 13 -13 13 13zm-27 0l0 -13 13 0 -13 13z"/>
   </g>
   <g>
    <path class="fil3" d="M24023 27194l0 -370 -34 0c-37,0 -67,-30 -67,-66l0 -81c0,-37 30,-66 67,-66l196 0c25,0 46,13 58,33 12,-20 33,-33 58,-33l170 0c32,0 63,3 92,10 30,7 58,17 84,31 26,14 49,31 69,50 20,20 38,42 52,66 14,24 25,51 32,80 7,28 10,57 10,88 0,30 -4,59 -10,87 -7,28 -18,55 -32,80 -14,25 -32,47 -52,67 -20,19 -43,36 -69,50 -26,14 -54,24 -84,31 -29,7 -60,10 -92,10l-170 0c-25,0 -46,-13 -58,-33 -12,20 -33,33 -58,33l-95 0c-37,0 -67,-30 -67,-66zm441 -150l10 0c13,0 25,-1 34,-3 9,-2 17,-5 25,-10 7,-4 14,-9 20,-15 6,-6 11,-13 15,-20 4,-8 7,-16 10,-26 2,-10 4,-22 4,-35 0,-25 -4,-45 -13,-61 -4,-8 -9,-14 -15,-20 -6,-6 -12,-11 -20,-15 -7,-4 -16,-7 -25,-9 -10,-2 -22,-4 -34,-4l-10 0 0 218z"/>
    <path class="fil4" d="M24090 27194l0 -437 -101 0 0 -81 196 0 0 517 -95 0zm211 0l0 -517 170 0c55,0 103,11 144,33 41,22 72,52 95,91 22,39 34,83 34,134 0,50 -11,95 -34,134 -22,39 -54,70 -95,92 -41,22 -89,33 -144,33l-170 0zm95 -83l77 0c35,0 66,-7 92,-22 26,-15 46,-35 61,-61 14,-26 22,-57 22,-93 0,-36 -7,-67 -22,-93 -14,-26 -35,-46 -61,-60 -26,-14 -57,-22 -92,-22l-77 0 0 351z"/>
   </g>
  </g>
  <g>
   <polygon class="fil7" points="3000,28552 9648,28552 9648,32451 3000,32451 "/>
   <polygon class="fil7" points="13853,25324 9648,25324 9648,28552 13853,28552 "/>
   <polygon class="fil7" points="13853,28552 18058,28552 18058,25324 13853,25324 "/>
   <polygon class="fil7" points="18058,25324 22264,25324 22264,28546 18058,28546 "/>
   <polygon class="fil7" points="22264,28546 26469,28546 26469,25324 22264,25324 "/>
   <polygon class="fil7" points="26469,25324 30674,25324 30674,28546 26469,28546 "/>
   <polygon class="fil7" points="33953,24284 30674,24284 30674,20152 33953,20152 "/>
   <polygon class="fil7" points="33953,20152 30644,20152 30644,16019 33953,16019 "/>
   <polygon class="fil7" points="30644,16019 26469,16019 26469,19241 30644,19241 "/>
   <polygon class="fil7" points="26469,19241 22264,19241 22264,16019 26469,16019 "/>
   <polygon class="fil7" points="22264,16019 18058,16019 18058,19241 22264,19241 "/>
   <polygon class="fil7" points="18058,19241 13853,19241 13853,16019 18058,16019 "/>
   <polygon class="fil7" points="13853,16019 9648,16019 9648,19241 13853,19241 "/>
  </g>
 </g>
</svg>
