<?xml version="1.0" encoding="UTF-8"?>
<!DOCTYPE svg PUBLIC "-//W3C//DTD SVG 1.1//EN" "http://www.w3.org/Graphics/SVG/1.1/DTD/svg11.dtd">
<!-- Creator: CorelDRAW 2020 (64 Bit) -->
<svg xmlns="http://www.w3.org/2000/svg" xml:space="preserve" width="135.479mm" height="43.4513mm" version="1.1" style="shape-rendering:geometricPrecision; text-rendering:geometricPrecision; image-rendering:optimizeQuality; fill-rule:evenodd; clip-rule:evenodd"
viewBox="0 0 867 278"
 xmlns:xlink="http://www.w3.org/1999/xlink"
 xmlns:xodm="http://www.corel.com/coreldraw/odm/2003">
 <defs>
  <style type="text/css">
   <![CDATA[
    .fil0 {fill:white}
    .fil1 {fill:white;fill-rule:nonzero}
   ]]>
  </style>
 </defs>
 <g id="Camada_x0020_1">
  <metadata id="CorelCorpID_0Corel-Layer"/>
  <g id="_2950913802352">
   <path class="fil0" d="M11 217l42 24c-1,-1 -3,-2 -3,-4l0 -14c0,-3 5,-3 7,0 2,2 3,4 5,7 1,2 3,3 5,2 1,-1 2,-2 3,-2 3,-2 7,0 7,3l0 18c0,3 1,5 4,7l28 16c11,7 20,6 28,2 33,-19 66,-38 99,-57 7,-3 12,-10 12,-24 0,-36 0,-72 0,-108 0,-11 -4,-20 -14,-26l-29 -17 0 0c-4,-2 -9,-2 -13,0 -35,20 -70,40 -104,59 -6,4 -10,7 -10,16l0 15c0,3 -4,3 -7,0 -2,-3 -4,-6 -7,-9 -1,-1 -2,-2 -4,-1 -1,1 -2,2 -4,2 -3,1 -7,0 -7,-4l0 -15c0,-12 3,-16 11,-21 34,-20 69,-40 103,-60 3,-2 7,-2 10,-1l-37 -21c-9,-5 -18,-6 -27,0 -32,18 -63,36 -95,54 -13,7 -17,16 -16,26 0,38 0,76 0,114 0,8 4,14 11,19zm134 41c29,-16 58,-33 88,-49 4,-3 4,-6 4,-11 0,-37 0,-73 1,-110 0,-8 -8,-10 -13,-7 -28,16 -55,32 -83,48 -5,3 -7,7 -7,12 0,36 0,73 0,109 0,6 6,10 10,7zm-103 -108c3,-4 5,-5 8,-6 3,-2 7,-2 10,-2 4,0 7,1 11,3 4,2 8,5 11,9 3,4 6,9 8,15 2,5 3,11 3,16 0,5 -1,11 -3,15 -2,4 -3,7 -8,10 -5,3 -12,5 -18,3 -6,-2 -12,-6 -16,-11 -4,4 -8,8 -12,11 -2,2 -6,0 -8,-4 0,0 0,0 0,0 -2,-4 -2,-9 0,-12 3,-4 7,-8 10,-12 -2,-7 -3,-13 -2,-20 1,-6 3,-13 6,-17zm7 11c3,-3 7,-5 11,-4 4,1 9,3 12,8 4,5 6,11 6,17 0,6 -2,11 -6,14 -4,3 -8,3 -12,2 -4,-1 -8,-5 -11,-10 -3,-5 -4,-10 -4,-15 0,-5 1,-9 4,-13z"/>
   <g>
    <path class="fil0" d="M150 164c3,-2 6,-1 6,3 0,4 -2,8 -5,10 -3,2 -6,1 -6,-3 0,-4 2,-8 5,-10z"/>
    <path class="fil0" d="M221 115c3,-2 5,-1 6,3 0,4 -2,8 -5,10 -3,2 -5,1 -6,-3 0,-4 2,-8 5,-10z"/>
    <path class="fil0" d="M195 183c-8,9 -16,11 -22,7 -6,-3 -11,-11 -10,-19 0,-3 0,-5 0,-8 -3,5 -5,10 -6,15 -1,5 -2,11 -1,15 1,7 3,12 7,14 4,3 8,3 13,1 1,-1 2,-1 3,-2 4,-3 7,-7 10,-12 2,-4 4,-8 6,-13z"/>
    <path class="fil0" d="M205 129c-4,-5 -12,-6 -20,-1 -9,6 -16,18 -19,31 -1,4 -1,8 -1,12 0,5 2,8 4,11 2,3 4,5 8,5 -1,-2 -2,-4 -2,-6 0,-6 0,-12 2,-18 2,-6 4,-12 8,-18 4,-6 8,-10 12,-13 2,-2 5,-3 7,-4z"/>
    <path class="fil0" d="M174 214c4,4 11,4 18,-1 8,-6 15,-18 18,-30 1,-4 1,-9 1,-12 0,-5 -2,-9 -4,-12 -2,-3 -5,-4 -8,-4 1,2 2,4 2,7 0,1 0,2 0,4 0,6 -2,13 -4,19 -3,9 -9,18 -15,24 -1,1 -2,2 -3,3 -2,1 -3,2 -5,3z"/>
    <path class="fil0" d="M214 177c3,-4 4,-9 6,-14 1,-5 2,-10 2,-14 0,-5 -2,-9 -4,-12 -2,-3 -6,-4 -9,-4 -3,0 -7,1 -10,4 -4,3 -8,7 -11,12 -1,2 -2,4 -3,6 -1,3 -2,6 -3,8 2,-3 4,-5 7,-7 1,-1 2,-1 4,-2 0,0 0,0 0,0 1,-1 2,-1 3,-1 1,0 2,0 3,-1 0,0 0,0 0,0 5,-1 10,1 13,5 3,3 4,8 4,14 0,3 0,5 0,8z"/>
   </g>
  </g>
  <g id="_2950909385808">
   <path class="fil1" d="M398 76c0,-1 0,-3 0,-4 0,-14 -11,-23 -29,-23 -23,0 -36,13 -36,29 0,14 10,19 33,24 9,2 11,5 11,10 0,8 -7,13 -19,13 -9,0 -16,-3 -16,-11 0,-1 0,-2 0,-3l-17 0c0,2 0,4 0,5 0,15 11,23 33,23 19,0 37,-10 37,-30 0,-10 -4,-14 -10,-17 -6,-3 -13,-5 -24,-7 -8,-2 -11,-5 -11,-9 0,-7 6,-11 17,-11 10,0 15,2 15,11 0,1 0,1 0,2l17 0z"/>
   <path id="1" class="fil1" d="M453 94l-15 0 -3 16c-1,8 -5,12 -12,12 -5,0 -8,-2 -8,-7 0,-1 0,-3 1,-5l5 -26 34 0 2 -12 -34 0 3 -17 -16 0 -10 56c0,2 -1,4 -1,6 0,11 6,19 22,19 18,0 27,-12 30,-25l3 -18z"/>
   <path id="2" class="fil1" d="M485 123c-8,0 -12,-3 -12,-14 0,-15 6,-24 19,-24 8,0 12,3 12,14 0,15 -6,24 -19,24zm-2 14c22,0 38,-16 38,-39 0,-16 -10,-27 -27,-27 -23,0 -39,16 -39,39 0,16 10,27 27,27z"/>
   <path id="3" class="fil1" d="M584 95c0,-1 0,-2 0,-3 0,-13 -9,-21 -24,-21 -21,0 -36,13 -36,40 0,17 9,26 24,26 15,0 29,-10 33,-24l-17 0c-2,7 -7,10 -14,10 -5,0 -9,-4 -9,-15 0,-17 8,-24 16,-24 6,0 10,2 10,8 0,1 0,1 0,2l17 0z"/>
   <polygon id="4" class="fil1" points="638,135 625,96 650,73 629,73 605,96 613,50 596,50 581,135 598,135 602,116 611,107 620,135 "/>
   <path class="fil1" d="M426 229l9 -51c0,-2 0,-3 0,-5 0,-12 -8,-20 -21,-20 -9,0 -17,4 -22,12 -4,-9 -8,-12 -19,-12 -10,0 -17,3 -24,13l2 -11 -18 0 -13 74 20 0 8 -45c2,-10 7,-14 14,-14 7,0 10,1 10,8 0,2 0,4 -1,7l-8 45 20 0 8 -44c2,-9 8,-16 15,-16 6,0 9,3 9,10 0,1 0,3 0,5l-8 45 19 0z"/>
   <path id="1" class="fil1" d="M483 201c-2,9 -11,16 -20,16 -5,0 -9,-2 -9,-7 0,-7 3,-11 17,-13 8,-1 11,-2 13,-4l-2 8zm15 28l8 -47c0,-3 1,-6 1,-8 0,-13 -8,-21 -27,-21 -24,0 -34,11 -37,26l18 0c2,-7 6,-11 15,-11 7,0 11,1 11,8 0,4 -1,7 -14,8 -24,3 -39,8 -39,30 0,10 7,17 22,17 10,0 18,-3 24,-9 0,1 0,2 0,3 0,1 0,2 0,3l18 0z"/>
   <path id="2" class="fil1" d="M574 229l9 -51c0,-2 0,-4 0,-6 0,-12 -8,-19 -21,-19 -12,0 -20,5 -26,13l2 -11 -19 0 -13 74 20 0 8 -42c2,-11 8,-17 18,-17 7,0 11,2 11,8 0,2 0,4 -1,6l-8 45 20 0z"/>
   <path id="3" class="fil1" d="M632 201c-2,9 -11,16 -20,16 -5,0 -9,-2 -9,-7 0,-7 3,-11 17,-13 8,-1 11,-2 13,-4l-2 8zm15 28l8 -47c0,-3 1,-6 1,-8 0,-13 -8,-21 -27,-21 -24,0 -34,11 -37,26l18 0c2,-7 6,-11 15,-11 7,0 11,1 11,8 0,4 -1,7 -14,8 -24,3 -39,8 -39,30 0,10 7,17 22,17 10,0 18,-3 24,-9 0,1 0,2 0,3 0,1 0,2 0,3l18 0z"/>
   <path id="4" class="fil1" d="M694 215c-8,0 -13,-5 -13,-17 0,-16 7,-27 21,-27 9,0 13,5 13,17 0,18 -10,28 -21,28zm13 17c-2,10 -11,16 -21,16 -9,0 -14,-3 -14,-11 0,-1 0,-2 0,-3l-18 0c0,2 -1,4 -1,6 0,16 12,25 31,25 21,0 39,-12 43,-34l13 -75 -20 0 -2 9c-3,-8 -9,-11 -19,-11 -20,0 -40,19 -40,47 0,16 7,30 27,30 10,0 18,-4 22,-11l-2 12z"/>
   <path id="5" class="fil1" d="M810 197c1,-5 1,-10 1,-14 0,-20 -10,-30 -28,-30 -26,0 -44,19 -44,47 0,20 10,31 31,31 16,0 30,-9 37,-24l-20 0c-2,5 -8,8 -15,8 -9,0 -14,-4 -14,-15l0 -3 51 0zm-49 -12c3,-9 9,-16 19,-16 7,0 13,2 13,12 0,1 0,3 0,5l-31 0z"/>
   <path id="6" class="fil1" d="M831 229l7 -39c2,-12 9,-18 21,-18 2,0 4,0 5,0l3 -20 -3 0c-8,0 -16,1 -24,11l2 -9 -18 0 -13 74 20 0z"/>
  </g>
 </g>
</svg>
