<?xml version="1.0" encoding="UTF-8"?>
<!DOCTYPE svg PUBLIC "-//W3C//DTD SVG 1.1//EN" "http://www.w3.org/Graphics/SVG/1.1/DTD/svg11.dtd">
<!-- Creator: CorelDRAW 2020 (64 Bit) -->
<svg xmlns="http://www.w3.org/2000/svg" xml:space="preserve" width="99.8131mm" height="39.0082mm" version="1.1" style="shape-rendering:geometricPrecision; text-rendering:geometricPrecision; image-rendering:optimizeQuality; fill-rule:evenodd; clip-rule:evenodd"
viewBox="0 0 857 335"
 xmlns:xlink="http://www.w3.org/1999/xlink"
 xmlns:xodm="http://www.corel.com/coreldraw/odm/2003">
 <defs>
  <style type="text/css">
   <![CDATA[
    .fil0 {fill:white}
    .fil1 {fill:white;fill-rule:nonzero}
   ]]>
  </style>
 </defs>
 <g id="Camada_x0020_1">
  <metadata id="CorelCorpID_0Corel-Layer"/>
  <g id="_2829298758480">
   <g>
    <g>
     <path class="fil0" d="M521 7c0,12 0,19 0,19 0,0 -11,0 -32,0 0,0 0,3 0,10 0,0 11,0 32,0 0,0 0,6 0,19 0,0 -11,0 -33,0 0,0 0,4 0,13 0,0 11,0 33,0 0,0 0,6 0,19 0,0 -17,0 -51,0 0,0 0,-26 0,-79 34,0 51,0 51,0z"/>
     <path class="fil0" d="M582 6c0,12 0,19 0,19 0,0 -11,0 -32,0 0,0 0,3 0,10 0,0 11,0 32,0 0,0 0,6 0,19 0,0 -11,0 -33,0 0,0 0,4 0,13 0,0 11,0 33,0 0,0 0,6 0,19 0,0 -17,0 -51,0 0,0 0,-26 0,-79 34,0 51,0 51,0z"/>
     <path class="fil0" d="M645 6c0,12 0,19 0,19 0,0 -11,0 -32,0 0,0 0,3 0,10 0,0 11,0 32,0 0,0 0,6 0,19 0,0 -11,0 -33,0 0,0 0,4 0,13 0,0 11,0 33,0 0,0 0,6 0,19 0,0 -17,0 -51,0 0,0 0,-26 0,-79 34,0 51,0 51,0z"/>
     <path class="fil0" d="M655 7c0,52 0,78 0,78 12,0 19,0 19,0 0,-16 0,-23 0,-23 22,2 35,-4 38,-19 3,-16 -3,-28 -19,-35 -26,0 -39,0 -39,0zm34 17c-10,0 -15,1 -15,1 0,12 0,19 0,19 10,0 15,0 15,0 8,-6 8,-12 0,-19z"/>
    </g>
    <path class="fil1" d="M491 327l-1 -6c-2,1 -4,2 -6,2 -4,0 -7,-3 -7,-8 0,-5 3,-8 7,-8 2,0 4,1 6,2l1 -6c-2,-1 -4,-2 -7,-2 -8,0 -13,6 -13,14 0,8 5,14 13,14 3,0 5,-1 8,-2zm33 -17c0,3 -2,4 -5,4l-2 0 0 -8 2 0c3,0 4,1 4,4zm2 7c3,-1 5,-4 5,-8 0,-6 -4,-9 -10,-9l-9 0 0 27 7 0 0 -9 2 0 6 10 7 -1 -6 -10zm50 10l-9 -26 -7 0 -10 27 7 0 2 -6 9 0 2 6 7 -1zm-10 -10l-6 0 3 -9 3 9zm42 -11l-1 -6 -21 0 0 6 7 0 0 21 7 0 0 -21 8 0zm36 21l0 -5 -11 0 0 -6 9 0 -1 -6 -8 0 0 -5 10 0 0 -5 -17 0 0 27 17 0zm38 -33l-7 -1 -2 6 4 0 6 -5zm4 22l0 -16 -7 0 0 16c0,3 -2,5 -5,5 -3,0 -5,-2 -5,-6l0 -16 -7 0 0 16c0,8 5,11 11,11 7,0 11,-4 11,-11zm39 3c0,-4 -2,-6 -8,-9 -3,-1 -4,-2 -4,-3 0,-1 1,-2 3,-2 2,0 5,1 7,2l1 -6c-2,-1 -5,-2 -8,-2 -5,0 -9,3 -9,8 0,4 2,6 8,8 4,1 5,2 5,4 0,2 -1,2 -3,2 -3,0 -6,-1 -9,-3l-1 6c3,1 6,2 9,2 5,0 10,-3 10,-8zm30 0l0 -6 -11 0 0 6 11 0zm40 7l-1 -6c-2,1 -4,2 -6,2 -4,0 -7,-3 -7,-8 0,-5 3,-8 7,-8 2,0 4,1 6,2l1 -6c-2,-1 -4,-2 -7,-2 -8,0 -13,6 -13,14 0,8 5,14 13,14 3,0 5,-1 8,-2zm37 2l0 -5 -11 0 0 -6 9 0 -1 -6 -8 0 0 -5 10 0 0 -5 -17 0 0 27 17 0z"/>
    <g>
     <path class="fil0" d="M470 103c0,53 0,80 0,80 13,0 19,0 19,0 0,-25 0,-38 0,-38 8,11 12,16 12,16 8,0 12,0 12,0 7,-10 10,-16 10,-16 0,24 0,37 0,37 13,0 19,0 19,0 0,-52 0,-78 0,-78 -10,0 -15,0 -15,0 -14,20 -21,30 -21,30 -14,-20 -20,-30 -20,-30 -10,0 -16,0 -16,0z"/>
     <path class="fil0" d="M597 122c0,4 0,6 0,6 -12,-9 -24,-9 -34,1 -13,14 -12,30 1,46 13,10 24,10 34,0 0,6 0,8 0,8 11,0 17,0 17,0 0,-40 0,-61 0,-61 -12,0 -17,0 -17,0zm-14 44c8,0 14,-7 14,-15 0,-8 -6,-15 -14,-15 -8,0 -14,7 -14,15 0,8 6,15 14,15z"/>
     <path class="fil0" d="M625 182c0,-41 0,-61 0,-61 12,0 17,0 17,0 0,5 0,7 0,7 12,-11 24,-11 36,0 3,6 5,10 4,13 0,27 0,41 0,41 -12,0 -18,0 -18,0 0,-23 0,-35 0,-35 0,-3 0,-4 0,-4 -6,-9 -13,-9 -20,0 0,4 0,7 0,7 0,22 0,33 0,33 -13,0 -20,0 -20,0z"/>
     <path class="fil0" d="M839 103c0,53 0,79 0,79 12,0 18,0 18,0 0,-53 0,-79 0,-79 -12,0 -17,0 -17,0z"/>
     <path class="fil0" d="M827 159c-29,0 -43,0 -43,0 5,10 13,11 24,4 13,0 19,0 19,0 -4,12 -15,19 -31,20 -12,0 -21,-4 -26,-14 -7,-13 -7,-25 0,-36 8,-9 18,-14 30,-13 10,0 18,5 23,14 4,7 5,15 3,25zm-30 -23c-6,0 -11,3 -13,10 17,0 25,0 25,0 -1,-6 -5,-10 -12,-10z"/>
     <path class="fil0" d="M725 184c18,0 33,-14 33,-32 0,-18 -15,-32 -33,-32 -18,0 -33,14 -33,32 0,18 15,32 33,32zm0 -18c8,0 14,-7 14,-15 0,-8 -6,-15 -14,-15 -8,0 -14,7 -14,15 0,8 6,15 14,15z"/>
    </g>
    <g>
     <path class="fil0" d="M470 201c0,53 0,79 0,79 13,0 19,0 19,0 0,-25 0,-38 0,-38 8,11 12,16 12,16 8,0 12,0 12,0 7,-10 10,-16 10,-16 0,24 0,36 0,36 13,0 19,0 19,0 0,-52 0,-77 0,-77 -10,0 -15,0 -15,0 -14,20 -21,30 -21,30 -14,-20 -20,-30 -20,-30 -10,0 -16,0 -16,0z"/>
     <path class="fil0" d="M595 221c0,4 0,6 0,6 -12,-9 -23,-9 -34,1 -12,14 -12,29 1,45 13,10 24,10 33,0 0,6 0,8 0,8 11,0 17,0 17,0 0,-40 0,-60 0,-60 -12,0 -17,0 -17,0zm-13 44c8,0 14,-6 14,-14 0,-8 -6,-14 -14,-14 -8,0 -14,6 -14,14 0,8 6,14 14,14z"/>
     <path class="fil0" d="M623 281c0,-41 0,-61 0,-61 12,0 17,0 17,0 0,5 0,7 0,7 12,-11 24,-11 36,0 3,6 5,10 4,13 0,27 0,40 0,40 -12,0 -18,0 -18,0 0,-23 0,-35 0,-35 0,-3 0,-4 0,-4 -6,-9 -13,-9 -20,0 0,4 0,7 0,7 0,22 0,33 0,33 -13,0 -20,0 -20,0z"/>
     <path class="fil0" d="M722 281c18,0 33,-14 33,-32 0,-18 -15,-32 -33,-32 -18,0 -33,14 -33,32 0,18 15,32 33,32zm0 -16c8,0 15,-7 15,-15 0,-8 -7,-15 -15,-15 -8,0 -15,7 -15,15 0,8 7,15 15,15z"/>
    </g>
   </g>
   <g>
    <circle class="fil0" cx="26" cy="71" r="26"/>
    <circle class="fil0" cx="383" cy="71" r="26"/>
    <path class="fil0" d="M234 231c-80,29 -158,-66 -149,-123 0,-10 1,-19 3,-29 -31,20 -50,54 -50,91 0,52 41,98 91,106 5,1 11,1 16,1 20,0 39,-5 56,-15 12,-7 24,-19 32,-32z"/>
    <path class="fil0" d="M300 51c-19,-31 -54,-51 -92,-51 -44,0 -83,26 -99,66 -5,13 -8,27 -8,41 0,36 18,69 46,88 -4,-8 -6,-17 -6,-27 0,-43 23,-83 60,-106 19,-12 41,-18 64,-18 12,0 24,2 36,5z"/>
    <path class="fil0" d="M120 290c20,28 52,45 87,45 43,0 81,-25 99,-64 6,-14 9,-28 9,-43 0,-20 -5,-39 -15,-55 -9,-15 -21,-27 -36,-36 6,10 9,21 9,33 0,5 0,9 -1,14 -3,22 -13,43 -27,61 -20,26 -50,45 -82,49 -6,1 -12,1 -18,0 -8,-1 -17,-1 -25,-3z"/>
    <path class="fil0" d="M327 256c27,-20 44,-52 44,-87 0,-41 -23,-78 -59,-96 -15,-8 -31,-11 -48,-11 -20,0 -39,5 -56,15 -6,4 -12,8 -17,13 -7,7 -13,14 -19,22 10,-6 22,-9 34,-9 6,0 12,1 17,2 0,0 0,0 0,0 5,1 10,2 16,3 4,1 8,2 12,4 0,0 0,0 0,0 25,10 47,28 61,51 12,19 18,41 18,64 0,10 -1,20 -3,29z"/>
   </g>
  </g>
 </g>
</svg>
